<svg width="32" height="38" viewBox="0 0 32 38" fill="none" xmlns="http://www.w3.org/2000/svg">
<path d="M16 26C7.16 26 0 29.58 0 34V38H32V34C32 29.58 24.84 26 16 26ZM8 14C8 16.1217 8.84285 18.1566 10.3431 19.6569C11.8434 21.1571 13.8783 22 16 22C18.1217 22 20.1566 21.1571 21.6569 19.6569C23.1571 18.1566 24 16.1217 24 14H8ZM15 0C14.4 0 14 0.42 14 1V7H12V2C12 2 7.5 3.72 7.5 9.5C7.5 9.5 6 9.78 6 12H26C25.9 9.78 24.5 9.5 24.5 9.5C24.5 3.72 20 2 20 2V7H18V1C18 0.42 17.62 0 17 0H15Z" fill="white"/>
</svg>
