<svg width="77" height="40" viewBox="0 0 77 40" fill="none" xmlns="http://www.w3.org/2000/svg">
<path d="M27.2959 28.338H49.6785C49.6785 21.9572 44.6612 16.8097 38.5002 16.8097C32.2872 16.7829 27.2959 21.9572 27.2959 28.338Z" fill="#AE9A64"/>
<path d="M25.2161 26.6759L10.9963 28.2845L11.3863 28.3381H25.1121C25.1121 27.7751 25.1641 27.2121 25.2161 26.6759ZM13.414 16.5417C16.9494 26.9708 21.6027 19.0351 25.6841 24.3703C26.022 23.1638 26.5419 22.0378 27.1658 20.9922C22.7985 17.6946 17.0274 24.9333 13.414 16.5417ZM30.2333 17.4801L19.0811 8.25747L28.0237 19.7589C28.6736 18.9278 29.4015 18.1503 30.2333 17.4801ZM32.1311 16.1932C33.1709 15.6034 34.3147 15.1744 35.4845 14.9063C34.6267 9.41029 25.6321 10.3218 28.8036 1.74265C24.1763 11.6891 32.8849 9.49073 32.1311 16.1932ZM38.4741 14.5578C38.994 14.5578 39.4879 14.5846 40.0078 14.6382L38.4221 0L36.8623 14.665C37.3822 14.5846 37.9282 14.5578 38.4741 14.5578ZM50.1463 2.62738C40.0858 6.27353 47.6506 11.0457 42.6594 15.2281C43.8032 15.6034 44.8691 16.1664 45.8569 16.8367C49.0284 12.3326 42.0095 6.38077 50.1463 2.62738ZM48.9244 19.7589L57.8671 8.25747L46.7148 17.4801C47.5207 18.1503 48.2745 18.9278 48.9244 19.7589ZM64.314 18.7134C54.7215 13.968 56.7752 22.8153 50.4062 22.1718C50.9261 23.2442 51.3161 24.3971 51.55 25.6303C56.8792 24.7188 56.0213 15.4425 64.314 18.7134ZM65.5359 28.3381L65.9258 28.2845L51.706 26.6759C51.758 27.2121 51.81 27.7751 51.81 28.3381H65.5359Z" fill="#AE9A64"/>
<path d="M3.76941 30.5897C3.89939 31.0455 4.05537 31.6085 4.26334 32.2251C4.47131 32.8685 4.67927 33.5388 4.91324 34.2358C5.1472 34.9329 5.38116 35.5763 5.64112 36.1662C5.8231 35.6568 6.00507 35.1474 6.18704 34.6112C6.36901 34.075 6.55098 33.4852 6.78495 32.7881C6.94092 32.2787 7.0969 31.7693 7.25287 31.2599C7.40885 30.7505 7.56483 30.2412 7.6948 29.7318C7.85078 29.7854 8.03275 29.8122 8.18873 29.839C8.3447 29.8658 8.50068 29.8658 8.65666 29.8658C8.86462 29.8658 9.0466 29.839 9.17657 29.8122C9.33255 29.7854 9.46253 29.7586 9.61851 29.7318C9.33255 30.3752 9.07259 31.0455 8.78664 31.6889C8.50068 32.3323 8.24072 33.0026 7.98076 33.6728C7.77279 34.2626 7.56483 34.7988 7.35686 35.3082C7.17489 35.8176 6.96692 36.3002 6.78495 36.7828C6.60297 37.2654 6.421 37.7479 6.23903 38.2573C6.05706 38.7667 5.87509 39.3029 5.66712 39.8927C5.32917 39.8123 5.01722 39.7587 4.67927 39.7587C4.5233 39.7587 4.36732 39.7587 4.21135 39.7855C4.05537 39.8123 3.89939 39.8391 3.74342 39.8927C3.69143 39.6783 3.58744 39.3565 3.45746 38.9812C3.32748 38.6059 3.17151 38.1501 3.01553 37.6675C2.83356 37.1849 2.65159 36.6755 2.46962 36.1125C2.26165 35.5763 2.07968 35.0133 1.87171 34.4771C1.66374 33.9409 1.48177 33.4047 1.2738 32.8685C1.06583 32.3591 0.883863 31.8766 0.727887 31.4476C0.545915 31.0186 0.415935 30.6701 0.285956 30.3484C0.155976 30.0535 0.0779879 29.839 0 29.7318C0.311952 29.7586 0.649899 29.8122 0.961851 29.8122C1.2738 29.839 1.58575 29.839 1.9237 29.839C2.49561 29.839 3.04153 29.7854 3.61344 29.705C3.56145 29.839 3.63943 30.1339 3.76941 30.5897Z" fill="white"/>
<path d="M14.7657 38.4726C14.8956 38.4726 15.0776 38.4726 15.2856 38.4726C15.5195 38.4726 15.7535 38.4726 15.9875 38.4458C16.2474 38.4458 16.4814 38.419 16.7154 38.419C16.9493 38.3922 17.1313 38.3922 17.2873 38.3922C17.2613 38.5262 17.2613 38.6603 17.2353 38.7943C17.2093 38.9284 17.2093 39.0624 17.2093 39.1965C17.2093 39.3305 17.2093 39.4377 17.2353 39.5718C17.2613 39.7058 17.2613 39.8131 17.2873 39.9203C16.7154 39.8667 16.1694 39.8399 15.6235 39.8131C15.0776 39.7863 14.5057 39.7863 13.9598 39.7863C13.3879 39.7863 12.842 39.7863 12.27 39.8131C11.6981 39.8399 11.1522 39.8667 10.5803 39.9203C10.6063 39.7327 10.6323 39.545 10.6323 39.3573C10.6583 39.1696 10.6583 38.9552 10.6583 38.7139C10.6583 38.4726 10.6583 38.1777 10.6843 37.8292C10.6843 37.4806 10.6843 37.0517 10.6843 36.4887V34.9337C10.6843 34.183 10.6843 33.5664 10.6843 33.0838C10.6843 32.6012 10.6843 32.1722 10.6583 31.7969C10.6583 31.4216 10.6323 31.0999 10.6063 30.7781C10.5803 30.4564 10.5543 30.1079 10.5283 29.7325C10.9962 29.7594 11.4902 29.7862 11.9581 29.813C12.426 29.8398 12.9199 29.8398 13.3879 29.8398C13.6478 29.8398 13.9598 29.8398 14.2977 29.8398C14.6357 29.8398 14.9996 29.8398 15.3376 29.8398C15.7015 29.8398 16.0395 29.813 16.3514 29.813C16.6894 29.7862 16.9753 29.7862 17.2093 29.7594C17.1833 29.8934 17.1833 30.0275 17.1573 30.1347C17.1313 30.2419 17.1313 30.376 17.1313 30.51C17.1313 30.6441 17.1313 30.7781 17.1573 30.9122C17.1833 31.0462 17.1833 31.1803 17.2093 31.3143C16.8713 31.2875 16.5074 31.2875 16.1694 31.2607C15.8315 31.2339 15.4935 31.2339 15.1556 31.2339H13.6998V34.0221C13.8038 34.0221 13.9858 34.0221 14.1937 34.0221C14.4017 34.0221 14.6617 34.0221 14.9736 33.9953C15.2596 33.9953 15.5975 33.9685 15.9615 33.9417C16.3254 33.9149 16.6894 33.8881 17.0793 33.8613C17.0533 33.9953 17.0533 34.1294 17.0273 34.2366C17.0013 34.3439 17.0013 34.4779 17.0013 34.612C17.0013 34.8532 17.0273 35.1213 17.0793 35.3894C16.7933 35.3626 16.5334 35.3626 16.2994 35.3358C16.0395 35.309 15.7795 35.309 15.5195 35.2822C15.2596 35.2554 14.9736 35.2554 14.6877 35.2554C14.4017 35.2554 14.0638 35.2554 13.6998 35.2554V38.4994H14.7657V38.4726Z" fill="white"/>
<path d="M22.6168 38.472C22.9028 38.472 23.1887 38.4451 23.5267 38.4451C23.8646 38.4183 24.2026 38.4183 24.5405 38.3915C24.8785 38.3647 25.1644 38.3379 25.3724 38.3111C25.3464 38.4183 25.3464 38.5256 25.3204 38.6864C25.2944 38.8205 25.2944 38.9813 25.2944 39.1422C25.2944 39.2762 25.2944 39.4103 25.3204 39.5443C25.3464 39.6784 25.3464 39.8124 25.3724 39.9465C24.8005 39.8929 24.2806 39.8661 23.8127 39.8393C23.3707 39.8125 22.9028 39.8124 22.4609 39.8124C21.9669 39.8124 21.395 39.8125 20.7451 39.8393C20.0952 39.8661 19.4453 39.8929 18.7434 39.9465C18.8214 39.5175 18.8734 39.0886 18.8994 38.6328C18.9254 38.177 18.9514 37.7213 18.9514 37.3191V36.5684C18.9514 36.1127 18.9514 35.7105 18.9514 35.3352C18.9514 34.9598 18.9514 34.6113 18.9254 34.2896C18.9254 33.9679 18.9254 33.6462 18.8994 33.3244C18.8994 33.0295 18.8734 32.7078 18.8734 32.3593C18.8474 31.9303 18.8474 31.4745 18.8214 31.0188C18.8214 30.563 18.7954 30.1341 18.7434 29.7855C19.3153 29.866 19.9133 29.9196 20.5112 29.9196C20.7971 29.9196 21.0571 29.9196 21.343 29.8928C21.603 29.866 21.863 29.8391 22.1489 29.7855C22.1229 30.0268 22.0969 30.3485 22.0969 30.7775C22.0709 31.1796 22.0709 31.6354 22.0449 32.0912C22.0189 32.5469 22.0189 33.0027 22.0189 33.4585C22.0189 33.9143 22.0189 34.3164 22.0189 34.6381V35.2816C22.0189 35.4156 22.0189 35.6301 22.0189 35.9518C22.0189 36.2467 22.0189 36.5953 22.0189 36.917C22.0189 37.2655 22.0189 37.5872 22.0189 37.8821C22.0189 38.177 22.0189 38.3915 22.0189 38.4988C22.1749 38.472 22.3569 38.472 22.6168 38.472Z" fill="white"/>
<path d="M28.0238 39.92C27.8678 39.8932 27.7119 39.8396 27.5559 39.8396C27.3999 39.8128 27.2439 39.8128 27.088 39.8128C26.932 39.8128 26.776 39.8128 26.62 39.8396C26.4641 39.8664 26.3341 39.8932 26.2041 39.92L27.01 38.0433C27.1399 37.7484 27.2699 37.4267 27.4259 37.0514C27.5819 36.676 27.7379 36.2739 27.9198 35.8449C28.1018 35.416 28.2578 34.987 28.4397 34.5044C28.6217 34.0487 28.8037 33.5661 28.9857 33.1103C29.0896 32.8422 29.1936 32.5473 29.3236 32.1988C29.4536 31.8502 29.5836 31.5017 29.6876 31.18C29.8175 30.8315 29.9215 30.5366 30.0255 30.2685C30.1295 30.0004 30.2075 29.8127 30.2335 29.7054C30.3894 29.7323 30.5454 29.7859 30.7274 29.7859C30.8834 29.8127 31.0653 29.8127 31.2213 29.8127C31.3773 29.8127 31.5593 29.8127 31.7152 29.7859C31.8712 29.7591 32.0532 29.7323 32.2092 29.7054C32.3131 30.054 32.4431 30.4561 32.5991 30.9119C32.7551 31.3677 32.9111 31.8502 33.093 32.3596C33.275 32.869 33.457 33.3784 33.6389 33.8878C33.8209 34.3972 34.0029 34.853 34.1589 35.3087C34.3408 35.8181 34.5228 36.2471 34.6788 36.6492C34.8348 37.0246 34.9647 37.3999 35.1207 37.7484C35.2507 38.097 35.4067 38.4455 35.5626 38.794C35.7186 39.1425 35.8746 39.5447 36.0826 39.9468C35.8226 39.8932 35.5106 39.8664 35.1987 39.8396C34.8608 39.8128 34.5748 39.8128 34.2888 39.8128C34.0029 39.8128 33.6909 39.8128 33.405 39.8396C33.119 39.8664 32.8071 39.8932 32.5211 39.92C32.4171 39.5715 32.3391 39.223 32.2352 38.8744C32.1312 38.5527 32.0272 38.2042 31.9232 37.8825C31.6113 37.8825 31.3253 37.8825 31.0133 37.8825C30.7014 37.8825 30.4154 37.8825 30.1035 37.8825C29.8695 37.8825 29.6356 37.8825 29.3756 37.8825C29.1416 37.8825 28.8817 37.8825 28.6477 37.8825C28.5177 38.2042 28.4138 38.5527 28.3098 38.9013C28.2318 39.223 28.1278 39.5715 28.0238 39.92ZM29.0636 36.5956C29.1676 36.5956 29.2716 36.6224 29.3756 36.6224C29.4796 36.6224 29.5836 36.6224 29.6876 36.6224H30.2855H30.8834C30.9874 36.6224 31.0913 36.6224 31.1953 36.6224C31.2993 36.6224 31.4033 36.6224 31.5073 36.5956L30.3115 33.298L29.0636 36.5956Z" fill="white"/>
<path d="M46.7403 36.1935C46.6363 36.6761 46.4543 37.1051 46.2464 37.5072C46.0384 37.9094 45.7785 38.2579 45.4925 38.5528C45.2065 38.8477 44.8686 39.1158 44.5046 39.2767C44.2707 39.4107 44.0367 39.4912 43.8547 39.5716C43.6468 39.652 43.4648 39.7057 43.2568 39.7593C43.0489 39.8129 42.8669 39.8397 42.6329 39.8665C42.425 39.8933 42.191 39.8933 41.931 39.8933C41.4631 39.8933 40.9692 39.8665 40.5013 39.8397C40.0333 39.7861 39.5654 39.7861 39.0715 39.7861C38.7335 39.7861 38.4216 39.8129 38.0836 39.8397C37.7457 39.8665 37.4337 39.8933 37.1218 39.9201C37.1738 39.1426 37.1998 38.4188 37.2258 37.7217C37.2518 37.0247 37.2778 36.274 37.2778 35.5233C37.2778 34.5849 37.2778 33.6466 37.2518 32.7083C37.2258 31.7699 37.1998 30.8047 37.1478 29.7592C37.4337 29.786 37.6937 29.8396 37.9797 29.8396C38.2656 29.8664 38.5256 29.8664 38.8115 29.8664C39.2795 29.8664 39.7474 29.8396 40.1893 29.8128C40.6313 29.7592 41.0992 29.7592 41.5671 29.7592C42.191 29.7592 42.7889 29.8128 43.3348 29.92C43.8807 30.0273 44.4007 30.2685 44.9466 30.6171C45.2845 30.8316 45.5705 31.0997 45.8044 31.3946C46.0644 31.6895 46.2464 32.038 46.4284 32.3865C46.5843 32.7351 46.7143 33.1104 46.7923 33.5125C46.8703 33.9147 46.8963 34.29 46.8963 34.6922C46.9223 35.2284 46.8443 35.711 46.7403 36.1935ZM43.3608 32.6814C43.2308 32.1721 43.0489 31.7967 42.8149 31.5286C42.5809 31.2605 42.321 31.0997 42.009 31.0192C41.6971 30.9388 41.3851 30.912 41.0472 30.912C40.8392 30.912 40.6313 30.9388 40.3973 30.9656C40.3713 31.3678 40.3713 31.7699 40.3453 32.1452C40.3453 32.5206 40.3193 32.9227 40.3193 33.3517C40.3193 33.727 40.3193 34.1292 40.3193 34.6118C40.3193 35.0675 40.3193 35.5501 40.3193 36.0595C40.3193 36.5421 40.3193 37.0247 40.3193 37.4804C40.3193 37.9362 40.3193 38.3652 40.3193 38.7405C40.3973 38.7405 40.4493 38.7673 40.5273 38.7673C40.5793 38.7673 40.6572 38.7673 40.7352 38.7673H41.1512C41.6191 38.7673 42.009 38.6869 42.295 38.526C42.6069 38.3652 42.8409 38.1239 43.0229 37.7753C43.2049 37.4536 43.3348 37.0247 43.3868 36.5153C43.4648 36.0059 43.4908 35.4161 43.4908 34.7458C43.5688 33.8611 43.5168 33.1908 43.3608 32.6814Z" fill="white"/>
<path d="M52.4856 38.4726C52.6156 38.4726 52.7975 38.4726 53.0055 38.4726C53.2395 38.4726 53.4734 38.4726 53.7074 38.4458C53.9674 38.4458 54.2013 38.419 54.4353 38.419C54.6692 38.3922 54.8512 38.3922 55.0072 38.3922C54.9812 38.5262 54.9812 38.6603 54.9552 38.7943C54.9292 38.9284 54.9292 39.0624 54.9292 39.1965C54.9292 39.3305 54.9292 39.4377 54.9552 39.5718C54.9812 39.7058 54.9812 39.8131 55.0072 39.9203C54.4353 39.8667 53.8894 39.8399 53.3435 39.8131C52.7975 39.7863 52.2256 39.7863 51.6797 39.7863C51.1078 39.7863 50.5619 39.7863 49.99 39.8131C49.4181 39.8399 48.8721 39.8667 48.3002 39.9203C48.3262 39.7327 48.3522 39.545 48.3522 39.3573C48.3782 39.1696 48.3782 38.9552 48.3782 38.7139C48.3782 38.4726 48.3782 38.1777 48.4042 37.8292C48.4042 37.4806 48.4042 37.0517 48.4042 36.4887V34.9337C48.4042 34.183 48.4042 33.5664 48.4042 33.0838C48.4042 32.6012 48.4042 32.1722 48.3782 31.7969C48.3782 31.4216 48.3522 31.0999 48.3262 30.7781C48.3002 30.4564 48.2742 30.1079 48.2482 29.7325C48.7162 29.7594 49.2101 29.7862 49.678 29.813C50.146 29.8398 50.6399 29.8398 51.1078 29.8398C51.3678 29.8398 51.6797 29.8398 52.0177 29.8398C52.3556 29.8398 52.7196 29.8398 53.0575 29.8398C53.4214 29.8398 53.7594 29.813 54.0713 29.813C54.4093 29.7862 54.6952 29.7862 54.9292 29.7594C54.9032 29.8934 54.9032 30.0275 54.8772 30.1347C54.8512 30.2419 54.8512 30.376 54.8512 30.51C54.8512 30.6441 54.8512 30.7781 54.8772 30.9122C54.9032 31.0462 54.9032 31.1803 54.9292 31.3143C54.5913 31.2875 54.2273 31.2875 53.8894 31.2607C53.5514 31.2339 53.2135 31.2339 52.8755 31.2339H51.4198V34.0221C51.5237 34.0221 51.7057 34.0221 51.9137 34.0221C52.1216 34.0221 52.3816 34.0221 52.6936 33.9953C52.9795 33.9953 53.3175 33.9685 53.6814 33.9417C54.0453 33.9149 54.4093 33.8881 54.7992 33.8613C54.7732 33.9953 54.7732 34.1294 54.7472 34.2366C54.7212 34.3439 54.7212 34.4779 54.7212 34.612C54.7212 34.8532 54.7472 35.1213 54.7992 35.3894C54.5133 35.3626 54.2533 35.3626 54.0193 35.3358C53.7594 35.309 53.4994 35.309 53.2395 35.2822C52.9795 35.2554 52.6936 35.2554 52.4076 35.2554C52.1216 35.2554 51.7837 35.2554 51.4198 35.2554V38.4994H52.4856V38.4726Z" fill="white"/>
<path d="M63.6639 36.5689C63.8979 36.9442 64.1319 37.3464 64.3658 37.7217C64.5998 38.0971 64.8338 38.4992 65.0937 38.8745C65.3277 39.2499 65.5616 39.5984 65.7696 39.9201C65.4577 39.8933 65.1197 39.8397 64.8078 39.8397C64.4958 39.8129 64.1579 39.8129 63.8459 39.8129C63.534 39.8129 63.248 39.8129 62.9621 39.8397C62.6761 39.8665 62.3901 39.8933 62.1042 39.9201C61.7402 39.1694 61.3763 38.4456 60.9864 37.7217C60.6224 36.9978 60.2065 36.274 59.7646 35.5233H59.7126C59.7126 36.1399 59.7126 36.8638 59.7386 37.6413C59.7646 38.4188 59.7646 39.1694 59.8165 39.9201C59.5566 39.8933 59.2966 39.8397 59.0107 39.8397C58.7507 39.8129 58.4648 39.8129 58.1788 39.8129C57.9188 39.8129 57.6589 39.8129 57.3729 39.8397C57.087 39.8665 56.801 39.8933 56.4891 39.9201C56.5411 39.4375 56.567 38.8745 56.619 38.2043C56.645 37.534 56.671 36.8638 56.671 36.1935C56.671 35.8718 56.671 35.4965 56.671 35.0139C56.671 34.5581 56.671 34.0219 56.645 33.4589C56.645 32.8959 56.619 32.2793 56.593 31.6627C56.567 31.046 56.5411 30.4026 56.5151 29.7592C56.827 29.8128 57.165 29.8396 57.4769 29.8664C57.7889 29.8932 58.1008 29.8932 58.3868 29.8932C58.8287 29.8932 59.2706 29.8664 59.7126 29.8396C60.1545 29.786 60.5964 29.786 61.0384 29.786C61.5063 29.786 61.9482 29.8128 62.4161 29.8932C62.8841 29.9468 63.3 30.0809 63.6639 30.2954C64.0279 30.483 64.3398 30.7511 64.5738 31.1265C64.8078 31.475 64.9377 31.9576 64.9377 32.5474C64.9377 33.2713 64.7298 33.8343 64.3398 34.2096C63.9499 34.6118 63.404 34.8799 62.7541 35.0139L63.066 35.5501C63.248 35.8182 63.456 36.1667 63.6639 36.5689ZM59.8685 34.4241C59.9205 34.4241 59.9465 34.4241 59.9985 34.4241H60.2585C60.8304 34.4241 61.2203 34.2632 61.4543 33.9415C61.6883 33.6198 61.7922 33.164 61.7922 32.6278C61.7922 32.2257 61.7402 31.9308 61.6363 31.6895C61.5323 31.475 61.4023 31.2873 61.2463 31.1801C61.0903 31.0728 60.9084 30.9924 60.7264 30.9656C60.5444 30.9388 60.3625 30.912 60.2065 30.912C60.1285 30.912 60.0505 30.912 59.9985 30.912C59.9205 30.912 59.8425 30.912 59.7905 30.9388V34.3973C59.7645 34.4241 59.8165 34.4241 59.8685 34.4241Z" fill="white"/>
<path d="M73.5687 29.9463C74.2446 30.1608 74.8685 30.5093 75.3625 30.9383C75.8824 31.3672 76.2723 31.9034 76.5583 32.5469C76.8442 33.1903 77.0002 33.9142 77.0002 34.7721C77.0002 35.6568 76.8442 36.4343 76.5583 37.1046C76.2723 37.7748 75.8564 38.311 75.3625 38.74C74.8425 39.1689 74.2446 39.4906 73.5427 39.7051C72.8408 39.9196 72.087 40 71.3071 40C70.5532 40 69.8513 39.8928 69.1754 39.6783C68.4995 39.4638 67.9276 39.1153 67.4077 38.6863C66.9138 38.2574 66.4978 37.6944 66.2119 37.0509C65.9259 36.4075 65.7699 35.6568 65.7699 34.8525C65.7699 33.9946 65.8999 33.2439 66.1859 32.6005C66.4718 31.957 66.8618 31.4208 67.3557 30.9651C67.8496 30.5361 68.4475 30.1876 69.1234 29.9731C69.7993 29.7586 70.5272 29.6514 71.3331 29.6514C72.139 29.6246 72.8928 29.7318 73.5687 29.9463ZM72.3209 38.6863C72.5549 38.5523 72.7629 38.3914 72.9188 38.177C73.0748 37.9625 73.2048 37.7212 73.3088 37.4263C73.4128 37.1314 73.4907 36.8633 73.5427 36.5415C73.5947 36.2466 73.6467 35.9517 73.6467 35.63C73.6727 35.3351 73.6727 35.0402 73.6727 34.7989C73.6727 34.3968 73.6467 33.941 73.5947 33.4852C73.5427 33.0294 73.4388 32.5737 73.2828 32.1715C73.1268 31.7694 72.8928 31.4477 72.5809 31.1796C72.2689 30.9115 71.853 30.7774 71.3591 30.7774C70.8652 30.7774 70.4752 30.9115 70.1893 31.1527C69.9033 31.394 69.6693 31.7158 69.4874 32.0911C69.3314 32.4664 69.2014 32.8954 69.1494 33.3244C69.0974 33.7801 69.0714 34.1823 69.0714 34.5844C69.0714 34.8793 69.0714 35.2011 69.0974 35.5228C69.1234 35.8445 69.1494 36.1662 69.2014 36.4879C69.2534 36.8096 69.3314 37.1046 69.4354 37.3995C69.5394 37.6944 69.6693 37.9357 69.8513 38.1501C70.0333 38.3646 70.2412 38.5523 70.5012 38.6863C70.7612 38.8204 71.0731 38.874 71.4371 38.874C71.801 38.874 72.087 38.8204 72.3209 38.6863Z" fill="white"/>
</svg>
