<svg xmlns="http://www.w3.org/2000/svg" width="153" height="63.28" viewBox="0 0 153 63.28">
  <g id="Grupo_203" data-name="Grupo 203" transform="translate(-555 -2981.776)">
    <g id="Grupo_200" data-name="Grupo 200">
      <path id="Trazado_197" data-name="Trazado 197" d="M562.515,3038.6l-1.862.158a1.41,1.41,0,0,0-1.6-1.363c-.978,0-1.735.234-1.735.867,0,.567.424.84,2.145,1.255,2.153.519,3.4,1.086,3.4,2.669,0,1.841-1.393,2.816-4.008,2.873-2.422,0-3.509-1.015-3.854-2.941l1.926-.178c0,1.021.816,1.583,1.857,1.646,1.2-.027,2.045-.369,2.045-1.1,0-.8-.32-.952-2.428-1.408-2.045-.45-3.01-1.408-3.01-2.579.1-1.811,1.244-2.378,3.725-2.514C561.127,3036.076,562.413,3036.894,562.515,3038.6Z" fill="#fff"/>
      <path id="Trazado_198" data-name="Trazado 198" d="M563.8,3044.939v-8.813h3.33c3.247.039,4.915,1.249,4.915,4.436,0,2.884-1.447,4.377-4.915,4.377Zm2.064-7.328v5.857h1.11c1.937.055,3.1-.529,3.1-2.906s-1.167-3.016-3.1-2.951Z" fill="#fff"/>
      <path id="Trazado_199" data-name="Trazado 199" d="M572.867,3041.481v-1.891h3.589v1.891Z" fill="#fff"/>
      <path id="Trazado_200" data-name="Trazado 200" d="M584.152,3041.7h-2.157v-1.471h4.147v3.488a9.011,9.011,0,0,1-2.641,1.149,9.5,9.5,0,0,1-1.923.168c-2.939-.152-4.446-1.648-4.52-4.469.074-2.886,1.581-4.436,4.52-4.618,3.014,0,3.957,1.122,4.5,2.68l-1.969.4a2.063,2.063,0,0,0-2.165-1.566,2.793,2.793,0,0,0-2.987,3.108c.028,2.093,1.127,3.094,2.892,3.094a3.7,3.7,0,0,0,2.3-.788Z" fill="#fff"/>
      <path id="Trazado_201" data-name="Trazado 201" d="M591.615,3045.031c-3.064-.057-4.642-1.549-4.711-4.469q.155-4.524,4.711-4.618,4.514.1,4.668,4.618Q596.125,3044.942,591.615,3045.031Zm.005-7.577c-1.846,0-2.77,1.039-2.77,3.1q0,3.051,2.77,3.049,2.718,0,2.718-3.049C594.338,3038.493,593.432,3037.454,591.62,3037.454Z" fill="#fff"/>
      <path id="Trazado_202" data-name="Trazado 202" d="M603.945,3044.939H597.1v-8.813h1.931v7.342h4.915Z" fill="#fff"/>
      <path id="Trazado_203" data-name="Trazado 203" d="M604.546,3044.939v-8.813h3.316c3.228.039,4.891,1.092,4.891,4.436,0,2.884-1.418,4.377-4.891,4.377Zm2.055-7.328v5.857h1.1c1.929.055,3.1-.529,3.1-2.906,0-2.437-1.176-3.016-3.1-2.951Z" fill="#fff"/>
    </g>
    <path id="Trazado_204" data-name="Trazado 204" d="M609.319,2981.8v10.8h-.039c-.037-.048.006,0-.045-.04a.834.834,0,0,1-.037-.127h-.048v-.163h-.037c-.081-.1-.071-.087-.254-.08-.019.01-.046.069-.122.042v-.042c-.046-.051-.017-.007-.04-.084-.129-.033-.249-.062-.372-.088-.019-.041-.029-.081-.046-.118h-.041v-.05h.041v-.038h-.041v-.329c-.179-.04-.176-.151-.166-.37h.044c.012-.088.023-.18.038-.256a.5.5,0,0,0-.2-.043c-.064.074-.113.08-.25.081.027-.123.059-.245.083-.369h-.042c-.069-.164-.106-.116-.126-.328-.083.022-.164.047-.249.077v.038c-.043-.009-.082-.025-.127-.038a1.881,1.881,0,0,0,.045-.207.438.438,0,0,1-.166-.165c-.046.021-.087.107-.163.081v-.042c-.06-.01-.115-.028-.164-.039v-.09c-.122-.041-.217-.069-.256-.2.069-.089.141-.166.208-.255a.48.48,0,0,1-.166-.2.809.809,0,0,1-.333,0v-.208c-.118-.072-.116-.143-.292-.166a.265.265,0,0,1-.208.166c-.036-.056-.028-.056-.082-.082a.558.558,0,0,0,.042-.206c-.053-.021-.108-.026-.169-.047a1.429,1.429,0,0,0,.043-.207.482.482,0,0,0-.165-.043c-.03.054-.056.121-.166.081v-.038c-.107-.047-.091,0-.124-.126a1.689,1.689,0,0,0,.078-.413c-.022-.014-.054-.025-.078-.04-.015-.057-.028-.111-.043-.163h-.121c-.015.062-.026.134-.042.2a.584.584,0,0,1-.249.044c-.019.068-.029.136-.043.2H604.5c-.013-.037-.029-.081-.041-.12h.041v-.208h-.041c-.019-.074.05-.195.041-.206h-.041v-.047a1.539,1.539,0,0,0-.166.047c-.014.026-.025.05-.041.086-.085-.017-.167-.036-.251-.046.014-.112.032-.224.042-.334-.046-.023-.065-.076-.08-.085h-.085v-.038h-.25v-.043l-.125-.04a2.467,2.467,0,0,0-.125-.5c-.042-.009-.084-.027-.126-.04a.639.639,0,0,1-.039.084h-.25c-.02-.033-.193-.326-.207-.335h-.169c-.037.1-.079.2-.122.291-.123-.027-.239-.141-.419-.082v.042c-.041.013-.082.031-.123.04-.012-.027-.027-.052-.039-.082-.079-.023-.061.024-.083.042-.043-.012-.082-.028-.127-.042-.012-.04-.026-.081-.041-.12h.041v-.13h.045c.015-.036.021-.078.039-.123-.1-.01-.192-.024-.289-.04v-.044h-.085V2986a1.006,1.006,0,0,1-.128-.045c-.015-.068-.021-.137-.037-.2a2.194,2.194,0,0,0-.414-.087.5.5,0,0,0-.044.087.889.889,0,0,0-.121.036v.127H600.6v.039l-.129-.039c-.03-.054-.122-.114-.128-.127v-.163H600.3c-.015-.039-.03-.086-.041-.123-.087-.017-.169-.027-.249-.046v.046a1.147,1.147,0,0,0-.126.037v-.037h-.166v-.046h-.25v-.038c-.07-.03-.107-.018-.166-.047a1.791,1.791,0,0,1-.126-.287,2.369,2.369,0,0,1-.247-.045v.127a.9.9,0,0,1-.538.083c-.131.045-.25.083-.376.122-.206-.38-.314-.3-.792-.287a1.766,1.766,0,0,1-.083-.29h-.084a.365.365,0,0,1-.331.245c-.12-.111-.584-.076-.831-.076a1.418,1.418,0,0,0-.083-.293c-.043-.015-.081-.032-.125-.046v.046h-.041c-.045.124-.083.248-.124.369H595.4V2985h-.167c-.036-.018-.058-.159-.161-.126v.045a.77.77,0,0,0-.126.045V2985a.721.721,0,0,1-.128.04V2985c-.166-.044-.137-.1-.2-.246h-.047v-.129c-.009-.012-.084-.037-.121-.08-.081.024-.038-.011-.081.043h-.043c-.041.051.017.132-.041.166h-.169v.041h-.044c.012.042.08.222.044.29h-.044v.044h-.2v-.044h-.251a.673.673,0,0,1-.495.418.591.591,0,0,1-.043-.131c-.051-.039-.015,0-.043-.077a1.113,1.113,0,0,1-.126.038v.124h-.294c-.024.046-.049.083-.077.13a.108.108,0,0,1-.126-.047,1.037,1.037,0,0,0-.457.047v.079c-.134.032-.089.061-.253.087-.032-.138-.043-.117-.2-.127-.095.1-.134.027-.212.08-.039.083-.084.167-.127.249h-.415c.014.045.03.084.042.128a.737.737,0,0,1-.081.04c-.055.1-.081.193-.126.292-.208.028-.416.058-.624.081a.5.5,0,0,1-.121.209h-.047v.083h-.036c-.015.044-.032.083-.046.127-.121.01-.25.024-.369.039-.017.059-.033.112-.047.166a.82.82,0,0,0-.454.29.72.72,0,0,0-.58-.041c-.017.07-.031.139-.042.211-.11-.033-.067-.026-.128-.087h-.043v-.083a.78.78,0,0,0-.084-.041c-.133-.137-.138-.159-.413-.168-.07.109-.267.147-.416.168-.037.16-.094.17-.291.164-.045.053,0,.021-.083.047a2.217,2.217,0,0,0,0,.534c-.068.016-.136.032-.207.047-.045.169-.028.043-.123.121v.048h-.043v.078a.248.248,0,0,1-.084.038v.089h-.043v.127h-.037c-.121.136-.025.015-.169.079v.043a.683.683,0,0,0-.126.046v.038a2.115,2.115,0,0,1-.329-.084h-.377a.429.429,0,0,1-.039.166c-.068-.015-.139-.026-.209-.045v.045c-.048.044-.015,0-.04.081-.07.015-.137.03-.208.041-.028.058-.058.117-.084.164-.086.089-.222.109-.294.214a.948.948,0,0,0-.12.5c.009.03.092.015.084.084h-.044a1.087,1.087,0,0,0-.165.287c-.13-.025-.251-.049-.375-.078a.7.7,0,0,1-.165.249h-.087v.042c-.025.012-.053.025-.079.039v.207h-.041v.161a.538.538,0,0,1-.085.045c0,.054.075.115.038.211h-.038v.087h-.041v.167h-.045c-.013.1-.024.193-.037.287H583.1v.043h-.164v.039c-.032.009-.058.029-.088.038-.07.114.063.054-.08.168v.048h-.131v.04h-.12v.038c-.042.013-.081.03-.124.046-.042.179-.083.354-.128.538-.124.007-.245.029-.375.037-.033.05.007.01-.035.045-.013.1-.1.287-.086.335a.7.7,0,0,1,.086.042v.245h-.046v.129l-.084.036c-.01.127-.026.25-.038.376H581.6a.351.351,0,0,0-.084.29c.133.032.149.06.168.212-.057.037-.043.092-.084.121h-.084c-.05.052-.036.116-.041.208h.041v.086c.04.021.084.057.125.079-.006.094-.138.281-.085.415.007.009.057.009.085.126-.057.03-.049.061-.085.084h-.081c-.044.043-.033.083-.04.167a.606.606,0,0,1,.331.082c-.026.137-.131.242-.082.418h.038v.289h-.038a.383.383,0,0,0-.043.208h-.085c-.106.135-.226.135-.248.373.047.037.009-.005.046.048h.121v.119a.859.859,0,0,0-.085.044c.015.083.031.166.045.247a5.2,5.2,0,0,0-.211.785c-.052.019-.111.029-.166.047-.016.069-.027.14-.041.207l.085.042v.122a.4.4,0,0,0-.208.292c.123.032.111.029.123.167h-.043c-.026.125-.053.25-.08.373.392.242.255,1.057.828,1.122.084.387.165.771.252,1.162a1.283,1.283,0,0,1,.416.164c.043.057-.018.136.043.17.124.072.17-.113.332.046h.041v.164h.039c.062.1-.059.495-.08.539h-.041v.085a1.074,1.074,0,0,0-.126.082v.165c.047.045.017.005.036.082a.485.485,0,0,0,.172.038v-.038h.207c.044.089.068.076.084.207h-.046c-.062.126.08.2.088.211a.064.064,0,0,1-.042.083c-.016.094.019.112.042.166a.612.612,0,0,1,.372.082h.17v.04a.909.909,0,0,1,.162.292c.082.016.168.028.251.038v.089h.039v.078a.42.42,0,0,0,.086.044v.084l.084.041c.013.04.025.083.036.123.119.072.11-.058.208.09h.047v.033h-.047a.381.381,0,0,0,.047.17c.081.028.164.056.248.083a.409.409,0,0,0,.038.081c.137.059.28.115.416.169-.006.269.026.339.294.334v-.045h.041v.045h.166v.289h.039c.038.154.095.172.294.164.024-.021.03-.068.121-.039.031.039.058.082.088.125h.165a.834.834,0,0,0,.33,0c.137.34.194.309.666.289v.041h.25v-.075c.175-.054.12-.144.331-.172.036-.146.075-.161.251-.169.032.046-.009.008.044.043v.126h.208c.037.091.371.52.332.623-.044.013-.085.028-.126.043a.322.322,0,0,0-.081.2c.325-.124.471.107.787.127v.127c.162.024.334.053.5.076.025-.272.054-.55.085-.828a.5.5,0,0,0,.246-.253c.088.027.034,0,.088.052h.077c.052.027.05.153.084.2.053.042.107.079.165.128a.655.655,0,0,0-.083.331c.185.039.181.137.378.166.075-.108.032-.054.163-.044a.359.359,0,0,0,.045.171h.039v.2s.027,0,.045.084c.16.042.128.121.289.165a.424.424,0,0,0,.078.33c.159.151.663.089.877.043a3.008,3.008,0,0,0,.123-.538h-.087c.044-.143.091-.107.129-.248H592.7v-.127c-.068-.053-.136-.108-.206-.166a1.487,1.487,0,0,0-.045-.166h-.039v-.332h.039c.045-.236.087-.471.128-.706a1.179,1.179,0,0,0-.128-.08v-.044c-.169-.123-.169-.009-.164-.338-.047-.044-.019,0-.042-.082.057-.018-.014-.014.042-.039h.125v-.04c-.234-.169-.039-.6-.125-.918h-.042v-.248H592.2c-.013-.053-.025-.108-.039-.166h-.038c-.008-.016.029-.093.038-.166.081-.071-.009-.051.039-.119.09-.138.149.048.17-.254h-.047c-.064-.111.065-.206.047-.295h-.047v-.08a.732.732,0,0,0-.081-.04.458.458,0,0,1,.042-.413,1.3,1.3,0,0,0,.125-.047.793.793,0,0,0-.039-.5h-.047c-.013-.122-.024-.243-.039-.367a.369.369,0,0,0,.164-.295h.21c.025-.05.07-.063.083-.082v-.082h.04v-.166h.044c.047-.139,0-.244.081-.336a.373.373,0,0,1,.336-.121.1.1,0,0,0,.123.038c.028-.038.053-.082.087-.121.036-.015.081-.031.121-.046-.006-.174-.067-.4,0-.5.055-.031.11-.058.166-.088v-.119h.041v-.213h.039c.049-.145.038-.288.082-.415a.373.373,0,0,1,.167.085v.038c.1-.009.2-.027.3-.038v.038h.122c.065-.095.127-.063.164-.123v-.08h.045v-.084h.038l.045-.122c.189-.034.384-.057.582-.086v-.039h.08c.025-.037.057-.083.085-.126.029-.01.359.089.494.089a.973.973,0,0,0,.171-.38,2.129,2.129,0,0,1,.623.164v-.04a.514.514,0,0,0,.166-.292c.248.063.5.116.748.168a1.538,1.538,0,0,0,.168.38h.082c.114.116.147.015.287.076a.956.956,0,0,1,.045.086c.071.013.138.026.2.041.016.04.03.081.044.125h.082c.036.148.151.216.21.332.01.069.031.137.039.2.045.017.086.029.129.05v-.087c.2.049.246.2.455.25-.031.149-.054.3-.084.454.069.014.137.026.21.045.054-.078.013-.114.08-.045.086.1.029.2.086.333h.04v.082h.038v.124h.046c.068.083.139.169.206.252h.126v.043a.35.35,0,0,1,.084-.043v-.042c.054.015.112.027.165.042-.019.171-.053.142-.128.246H600.3v.38c.043.03,0-.009.037.042h.085c.028-.051.073-.071.082-.089v-.078h.042v-.21h.048v-.082a.365.365,0,0,1,.121-.038c.014-.03.029-.061.041-.09h.209c.011.045.024.09.037.128a.787.787,0,0,1,.128.082v.121c-.2.029-.126.08-.292.127-.026.11-.055.1-.082.2h.044c.041.078.022.057.118.086v-.124h.047V3002h.122c.067.094.143.193.207.291.041.026.085.047.124.076v.088h.046c-.014.078-.027.167-.046.242h.046a.708.708,0,0,0,.041.128h.123c-.015.214-.164.412-.079.672h.037v.118h.042v.163h.041v.253h.045v.044h.165c0,.3.071.511-.04.705-.032.014-.058.032-.086.042-.151.16-.16.062-.167.373.085.084,0,.023.042.128h.041c.013.067.03.136.045.205h.039c.017.056-.03-.017-.039.042-.015.138-.032.277-.045.418h-.041c.015.04.029.08.041.123h.045a.5.5,0,0,1-.165.331h-.17c-.034-.043,0-.005-.044-.043-.01-.068-.026-.139-.041-.206-.08-.016-.164-.028-.248-.038v.08h-.081a1.435,1.435,0,0,1-.127.37v.169H600.8c-.071.09-.131.119-.165.246l.08.049v.04a.588.588,0,0,1,.123-.04v.04c.127.026.249.056.376.082-.1.256.049.267.08.5a.808.808,0,0,0-.125.039c-.039.054-.082.1-.123.164h-.128v.084h.128v-.084c.149.039.079.057.168.126-.015.058-.031.111-.045.164-.066.012-.136.028-.2.039v.046a.762.762,0,0,0-.165.337c-.088-.029-.04,0-.085-.05h-.046c-.039-.078.034-.168.046-.2h-.046v-.039h-.165v.039c-.039.012-.082.027-.123.037-.044.158-.081.307-.122.46h.041v.045h.2v.042l.09.039v.081c.02.015.053.027.075.046v.12c-.045.036,0,0-.034.043-.236-.043-.183-.007-.376.042.011.037.026.081.041.127h.037v.085a.313.313,0,0,1,.085.037v.331h.043v.082c.019.042.114.029.081.125h-.042a.29.29,0,0,1-.082.165h-.041a1.344,1.344,0,0,1-.044.167c-.037.028-.078.058-.121.088-.029.1-.053.191-.083.289-.032.011-.056.032-.084.04v.046h.041v.12h.043v.127h-.084c-.023.1-.046.089-.084.166-.084-.049-.072-.068-.205-.077a.5.5,0,0,1-.123.33h-.086v.037h-.04c-.08.1.043.082-.127.129-.013.039-.028.083-.038.12h.038v.044h.127c.051.02-.017.014.04.039v.126c-.083.03-.167.054-.249.084-.013.039-.03.083-.043.12-.167-.023-.33-.051-.5-.081a.438.438,0,0,0,.041.167h.044c-.015.082-.03.164-.044.246h-.248a2.578,2.578,0,0,1-.335.63H598.1c-.047-.061-.077-.065-.165-.084-.06.069-.11.135-.166.2h-.084a.444.444,0,0,1-.044.086H597.6v.084h-.042c-.058.069-.116.138-.169.2-.091.045-.194-.089-.333,0-.013.045-.025.085-.041.126-.04.018-.081.028-.124.046-.015.025-.028.054-.041.077h-.125c-.014.032-.028.06-.038.088h-.132v.04a1.464,1.464,0,0,1-.163.038v.044c-.138.043-.276.084-.416.122v.046c-.053.014-.107.026-.165.042v.038h-.081v.044h-.13a.335.335,0,0,1-.038.083h-.084c-.017.029-.024.054-.042.082h-.08c-.016.03-.031.052-.045.084-.068-.013-.137-.032-.207-.043v.043h-.082a.653.653,0,0,0-.042.088H594.9a.73.73,0,0,0-.039.079c-.152.029-.306.058-.459.084-.035-.047-.079-.047-.121-.084a.941.941,0,0,1-.085-.124c-.084.023-.168.053-.25.084-.025.174-.08.33-.248.373-.109.122-.2.065-.375.122v.045h-.248v.039h-.127v.044h-.207c-.018.029-.027.054-.042.082-.068.015-.136.026-.206.044a.709.709,0,0,0-.123.244H591.7c.06.154.049.2-.163.21a.445.445,0,0,0-.333-.088v.213h-.082v-.082a.364.364,0,0,0-.292-.084c-.049.056-.071.062-.167.084-.035.146-.107.155-.125.33a.3.3,0,0,1,.125.165c.1.016.2.03.292.044a.633.633,0,0,0,.042-.081h.164v-.042h.088v-.045c.057-.041.1-.031.2-.041.076.086.063,0,.125.041v.045c.121.109.052.116.289.123.033-.044.057-.081.089-.123h.041v-.086c.053-.06.182-.045.291-.045v.045h.125v.041c.168.045.229-.157.332-.205.125-.011.25-.033.377-.046v-.038c.124-.017.247-.025.37-.043v-.039h.085v-.043h.082c.043-.072.084-.144.125-.21.064.017.136.029.205.043.015-.026.031-.055.043-.081h.418v-.038a.691.691,0,0,1,.539.038v-.083H594.9c.032-.115.053-.1.127-.167v-.042h.123a.483.483,0,0,0,.082-.206c.167.028.335.054.5.083-.069.239-.22.209-.374.332-.031.057-.057.109-.084.164h-.127c-.026.079-.055.167-.079.249h-.126c-.016.058-.031.116-.045.164h-.039v.255h-.044v.037H594.7a.294.294,0,0,1-.045.165c-.055-.022-.113-.052-.164-.078v.04c-.1.061-.075.126-.122.168-.072.012-.142.027-.208.037v.044h-.089V3017h-.122v.037h-.127v.046h-.08c-.028.036-.056.082-.084.12-.082.03-.167.058-.25.085a1.9,1.9,0,0,0-.163.252h-.167v-.045h-.169v-.038a.331.331,0,0,0-.248.038v.045h-.123v.042h-.087v.042c-.078.027-.164.056-.248.081v.044c-.069.008-.138.025-.207.038v.04h-.041c-.032.1-.056.194-.089.29-.164-.028-.327-.058-.5-.081-.009.023-.024.053-.034.081h-.084c-.027.041-.057.09-.088.131-.181.09-.313-.08-.454-.041v.041h-.081v.036h-.129v.047h-.124v.042h-.208v.038h-.079v.039c-.1.02-.2.03-.3.047-.094.312-.4.028-.746.12v.047c-.153.007-.3.03-.453.039v.038h-.17v.044h-.082v.045c-.123.029-.251.049-.378.077v.049c-.047,0-.1-.075-.2-.049v.049h-.666a.744.744,0,0,0-.041.077h-.167v.039h-.125v.046h-.167v.042h-.163v.039c-.18-.028-.363-.059-.539-.081-.046.053-.085.11-.127.167-.136-.018-.276-.03-.413-.046h-1.123c-.019.046-.029.09-.044.124-.105-.018-.185-.124-.332-.078v.044c-.055.007-.113.026-.162.034v-.034h-.17v-.044a2.232,2.232,0,0,0-.746.122h-.375s0,.055-.083.043v-.043h-.251v.043h-.169c-.011.025-.025.061-.035.082h-.086v.041h-.044v-.041h-.166v-.041h-.248v-.041h-.25v.041h-.453v-.041c-.214-.053-.214.12-.38.082-.094-.021-.575-.222-.7-.169a.392.392,0,0,1-.044.087.66.66,0,0,1-.371.123c-.186-.2-.536-.155-.832-.244v-.044h-.247a2.343,2.343,0,0,0-.792-.086c-.095.008-.163.076-.289.04v-.04h-.21v-.039h-.163v-.042h-.133v-.046h-.578v-.039H575.7V3019c-.169.01-.331.029-.5.038-.032-.058-.06-.106-.089-.164a.051.051,0,0,0-.078.038h-.624v-.038h-.38v-.039l-.451-.089v-.038h-.17v-.039h-.081c-.014-.029-.03-.057-.044-.09h-.248a.626.626,0,0,1-.043.09c-.1-.021-.2-.029-.288-.047-.046-.055-.081-.111-.127-.167H572.5a.77.77,0,0,1-.037-.077c-.1.01-.2.019-.295.038a1.271,1.271,0,0,0-.416-.038c-.043,0-.075.077-.168.038-.038-.052-.08-.11-.12-.163h-.086v-.041c-.1-.021-.191-.029-.287-.049v-.041h-.126v-.038h-.124v-.043h-.208v-.046h-.123v-.038h-.127v-.038h-.167v-.045h-.2v-.042h-.126v-.04h-.124c-.029-.058-.057-.107-.085-.163h-.085v-.042c-.137-.018-.271-.033-.414-.042v-.045h-.122v-.038h-.129v-.041c-.165-.034-.332-.056-.5-.084v-.044c-.068.012-.137.032-.208.044v.044c-.064-.016-.137-.029-.2-.044.01-.071.024-.14.037-.213a1.367,1.367,0,0,1-.166-.036v-.046h-.165c-.044-.056-.083-.107-.124-.162-.156-.107-.277-.027-.336-.251-.051-.014-.109-.028-.162-.044v-.037h-.126c-.014-.031-.028-.06-.041-.087h-.082v-.041h-.084v-.045h-.085v-.036c-.08.029-.163.051-.247.081v.041c-.058.006.017-.031-.041-.041-.137.014-.279.031-.419.041v.124a1.308,1.308,0,0,1-.537-.079c-.012-.086-.033-.167-.042-.25-.083-.011-.165-.033-.25-.046a.306.306,0,0,1-.249.251.913.913,0,0,1-.085.211h.044a.184.184,0,0,0,.168.122c.044-.071.027-.051.122-.082a.554.554,0,0,0,.292.249h.2c.047.072.083.141.129.209.137.015.272.027.413.038.029.068.061.144.083.213.128.021.253.049.377.079v.129l.163.038v.043h.249c.009,0,.017.064.082.044.016-.03.034-.057.047-.087h.078a.612.612,0,0,0,.46.328c.047-.067.024-.053.129-.076.007.053.024.107.036.165.174.032.348.089.5.128v.124h.043v.042h.333a1.244,1.244,0,0,1,.084.124h.081a1.06,1.06,0,0,1,.082.12h.087v.047c.082.007.166.03.246.039.021-.009.021-.118.129-.086v.047c.047.043.014,0,.038.077a4.387,4.387,0,0,1,.584.166c.112.02.219.028.332.049.045.068.086.136.13.2.089.033.1-.068.162-.088v.046c.169.053.1.116.207.211v.034h.122c.106-.291.061-.261.459-.245a.9.9,0,0,1,.124.332c.182-.013.182-.053.291-.121v-.044h.207a.2.2,0,0,0,.087.078v.044a1.51,1.51,0,0,0,.166-.044c.01.034.028.059.038.087.046.025.083.061.129.082v.416H572.5a.581.581,0,0,1,.046.088.723.723,0,0,0,.165.043v.123h-.046v.038h-.119v-.038h-.333v-.047h-.167v-.04h-.165v-.036h-.166v-.043h-.211v-.047h-.126v-.041c-.1-.011-.191-.028-.287-.038v-.044H570.8c-.011-.023-.024-.053-.038-.083-.111-.021-.221-.026-.335-.044v-.038h-.084v-.046l-1.332-.248v-.122h-.037v-.046c-.1-.011-.194-.025-.289-.04v-.039h-.21v-.042h-.123v-.046h-.129v-.039H568.1V3019h-.08c-.028-.039-.061-.088-.085-.126-.08-.01-.167-.031-.253-.039v-.045c-.056-.015-.109-.023-.166-.044v-.038h-.122a.5.5,0,0,0-.043-.086h-.126v-.043h-.084v-.037c-.065-.012-.136-.031-.2-.04v-.047h-.166c-.043-.067-.085-.135-.124-.2-.142-.022-.277-.032-.414-.041v-.128h-.046v-.043h-.123v-.046c-.144-.059-.112.066-.163-.121a.972.972,0,0,1-.338-.12.6.6,0,0,0,.043-.087h-.043c-.08-.088-.084-.036-.206-.08v-.042h-.164a.825.825,0,0,1-.043-.083h-.122c-.018-.028-.031-.058-.046-.081h-.122v-.044l-.251-.213c-.016-.036-.028-.082-.042-.119a1.853,1.853,0,0,0-.21-.044v-.044h-.122c-.058-.067-.112-.138-.167-.205h-.251c-.01-.04-.026-.083-.036-.127a3.63,3.63,0,0,0-.373-.165c-.072-.009-.054.068-.087.086h-.248a1.331,1.331,0,0,1-.043-.131c.046-.032.008,0,.043-.036h.124v-.083c-.056-.034-.046-.033-.082-.084h-.085c-.03.05-.068.064-.083.084-.066.1-.082.292-.165.373H562.7v.043h.044v.04h.124v.038h.041a1,1,0,0,1-.084.211h.043a1.4,1.4,0,0,0,.662.42c-.02.188-.033.1-.119.206h-.046v.167h-.041c-.014.038-.027.078-.043.12-.142-.082-.115-.169-.2-.287-.03-.039-.086-.039-.126-.087h-.165c-.014-.038-.03-.079-.041-.119H562.7v-.088h-.041v-.085l-.086-.038v-.082h-.038v-.046c-.093-.078-.08.046-.129-.125-.051-.01-.1-.025-.165-.037.029-.192.038-.1.126-.208h.039v-.252c-.031-.023-.116-.04-.081-.127h.042v-.083h.125v-.081c-.069.018-.137.026-.206.043-.016-.091-.03-.2-.045-.292-.055-.043-.107-.081-.163-.119v-.045a1.515,1.515,0,0,1-.168-.046.445.445,0,0,0,.043-.2.806.806,0,0,1-.206-.083c.013-.073.022-.142.039-.21h-.039v-.039h-.249c-.084.082-.176.049-.254.166H561.2c-.018.1-.027.2-.039.292h-.129a.634.634,0,0,0-.248-.376v-.043s-.2.068-.25.043v-.043c-.1-.068-.083-.1-.245-.127-.062.08-.021.109-.086.046a.319.319,0,0,1-.125-.288h.084v-.131c-.145.043-.123.1-.29.131a.514.514,0,0,1,.039-.217h-.373v-.037h-.247a.943.943,0,0,0-.043.123c-.056.011-.109.03-.166.043v-.043c-.071-.054-.14-.108-.206-.169v-.081h-.044v-.08h-.043c-.076-.163.027-.173-.2-.212-.051.049,0,.019-.089.044-.121-.98-.037-25.14-.037-32.333C558.783,2981.726,597.407,2981.8,609.319,2981.8Zm-5.357,6.608H603.8c-.015-.043-.029-.078-.043-.126.085-.047.071-.068.209-.083.034.056-.005.005.038.043C603.985,2988.3,603.973,2988.351,603.962,2988.408Zm-4.656,11.175h.166v.166h-.166Zm1.616,3.534c-.021.082.008.04-.041.082s.009.008-.039.046v-.046H600.8l.038-.119C600.868,3003.087,600.9,3003.108,600.922,3003.117Zm1.123,3.2c.083.049.069.041.089.166h-.046v.2h-.043v.086H602c-.013.041-.028.08-.041.13a.522.522,0,0,0-.08-.05.328.328,0,0,1-.04-.166c.107-.1.017-.126.079-.246A.56.56,0,0,0,602.045,3006.32Zm-.372,1.616h.127v.087h.043v.038H601.8v.458a.96.96,0,0,0,.288.126,1.177,1.177,0,0,1-.043.294.5.5,0,0,1-.2.039v.081h-.125c-.045-.052-.086-.108-.128-.162-.037-.017-.081-.026-.122-.045v-.079h-.085a2.086,2.086,0,0,1,.085-.547h.122v-.039h.042C601.647,3008.1,601.661,3008.023,601.673,3007.936Zm-1,1.954a1.9,1.9,0,0,0,.046-.2.552.552,0,0,1,.454-.128.352.352,0,0,1,.082.208h-.037v.123h-.045a1.12,1.12,0,0,0-.039.13C600.98,3009.972,600.83,3009.932,600.673,3009.89Zm-.7.539c.036.05-.005.01.045.05-.03.091-.058.192-.088.29.03.008.058.027.088.037v.086a1.856,1.856,0,0,0-.25.044c-.033-.124-.074-.124-.123-.215a.958.958,0,0,0,.163-.2h.038v-.088Zm-.663.34h-.043c-.034.043,0,0-.041.037v-.085C599.306,3010.745,599.258,3010.721,599.306,3010.769Zm-.21.908h-.038v-.04h.122v.087C599.1,3011.7,599.144,3011.73,599.1,3011.677Zm-35.944,2.372v.078h-.206v-.078Zm34.7,0h.25a.5.5,0,0,1,.046.165c-.077.064-.037.079-.089.167h-.037v.119a1.115,1.115,0,0,1-.124.083,2.616,2.616,0,0,0-.082.337,1.263,1.263,0,0,1-.461-.165c-.047-.035,0,0-.038-.043.093-.06.115-.186.2-.249h.086c.01-.028.027-.053.036-.082h.087v-.042c.026-.013.057-.028.086-.046v-.2h.036Zm-39.388.29c.083.022.033-.007.083.042.066.057-.009.013.043.082a.385.385,0,0,0,.08.037c0,.046-.088.124-.042.212h.042v-.043c.144-.066.194.131.252.17.038.012.081.023.124.04V3015c.15.038.145.131.249.208.04.015.081.025.123.041.012.043.031.081.04.126h.126a.718.718,0,0,1,.042.083h.078c.02.029.028.054.045.082.132.074.108-.075.166.121h.044v.253c.334-.013.366-.17.623-.207.033.048,0,0,.043.045a.273.273,0,0,0,.039.329v.039h.167v.081c.184.129.228.352.5.419v.083a.677.677,0,0,0,.121.082v.044h.126c.054.042.039.118.041.2h-.041v.216h-.044c-.013.129-.027.272-.037.409a.977.977,0,0,0,.122.043c-.011.122-.024.247-.041.374h.086c.047-.089.093-.089.121-.21h.044c-.014-.069-.03-.14-.044-.207h-.039v-.08a.487.487,0,0,0-.082-.042v-.124c.041-.036.006,0,.039-.04h.126v.164a1.993,1.993,0,0,0,.289.042c.015-.095.04-.068.04-.087.067-.175-.073-.175.166-.207a1.685,1.685,0,0,1,.081.169h.129c.011.03.029.057.038.083h.086v.042c.041.024.085.055.126.08v.087h.04a1.651,1.651,0,0,1,.043.165h.041v.165c.041.1.133.157.167.294h.08c-.017.144-.1.245-.038.33v.038h.163c.016.089.029.166.043.254h.131a.4.4,0,0,1,.075-.292c.03-.009.055-.032.087-.039-.017-.09-.032-.167-.044-.253h.044c.01-.052.023-.11.038-.163a.24.24,0,0,1,.087-.041c.025-.09.052-.171.078-.255h-.078v-.2a.216.216,0,0,1-.046-.044h-.123v-.123c.156-.018.308-.033.457-.042v.042a1.543,1.543,0,0,1,.167.042v.038c.153.095.207.079.207.328a.332.332,0,0,0-.081.127c-.07-.006-.143-.028-.206-.038-.029.128-.056.252-.087.371h-.04c-.016.03-.03.056-.043.087-.042.011-.082.025-.127.037v.09c.14.077.1.069.085.243-.087.041-.3.185-.25.332.041.028.087.058.129.09v.078c.14.038.1.084.246.125.016-.11.031-.224.041-.333.055-.028.053-.028.082-.081.085.022.17.053.251.081.016.068.028.137.041.208-.013.084-.025.166-.041.248h.041c.108.128.186.1.334.167v.044c.07.016.137.024.206.044a.66.66,0,0,0,.046.079h.165c.042.065.082.144.124.213h.208v.038h.038v.127c.205-.018.129-.029.247-.086v.039a.279.279,0,0,1,.169.212c.1.025.078.01.127.079.086-.044.071-.066.206-.079.058.106.073.068.086.242.045.049.017,0,.041.09h.208c.054-.132.062-.159.245-.166.086.146.26.156.3.206.1.158-.144.164.127.25.162.055.328.11.493.168v.126c.127.025.249.049.372.079.014.029.027.058.042.087h.085c.014.025.029.052.044.077h.123v.045c.087-.015.169-.033.248-.045.041.059.085.112.125.167h.126v.05h.206a2.177,2.177,0,0,1,.164.2h.048v.125h-.253c.013.13.013.1.086.167v.037h.082v.046c.037.014.085.025.121.038a.6.6,0,0,1-.084.21.644.644,0,0,0-.333-.037v.037h-.2v-.037h-.123v-.046h-.21v-.042h-.123v-.041c-.129-.022-.144.116-.294.083v-.042h-.166a.431.431,0,0,1-.036-.085h-.129c-.03-.038-.055-.084-.083-.121h-.166v-.045h-.126v-.037h-.163c-.031-.059-.058-.115-.084-.165h-.085v-.045a.177.177,0,0,0-.209.078c-.023.009-.139-.067-.2-.078v-.086a.5.5,0,0,0-.167-.08c-.151.215-.487,0-.629-.036h-.2a.515.515,0,0,0-.081-.217h-.168c-.057-.016.016-.032-.04-.039v.039h-.042a2.045,2.045,0,0,0-.459-.164c-.021-.1-.015-.079-.083-.124-.126-.107-.294.008-.413-.166h-.04c-.019-.07-.03-.138-.045-.21a3.061,3.061,0,0,1-.621-.2h-.044v-.169c.044-.023.082-.054.123-.08v-.042c.136-.081.147.064.209-.165-.085-.047-.168-.127-.25-.165h-.082a1.008,1.008,0,0,0-.043-.123h-.042c-.071-.09-.077-.142-.207-.169v.038h-.039v.131a.724.724,0,0,1,.169.036c-.033.138-.06.275-.087.417l-.415-.087c-.053-.1-.112-.192-.165-.29a.475.475,0,0,1-.171.047c-.021-.13-.064-.148-.081-.292a4.6,4.6,0,0,0,.664.126v-.047c-.043-.052-.012,0-.038-.079a.769.769,0,0,0-.209-.088v-.083c-.05-.025-.061-.073-.084-.084h-.081v-.035h-.171c-.118-.08.067-.217-.206-.291-.111-.122-.337-.081-.5-.044v.078l.248.169v.123h-.041c-.043.08.025.218.041.255h.04v.079a.151.151,0,0,0-.081.09.48.48,0,0,0-.125-.043,1.243,1.243,0,0,0-.043-.126c-.277-.079-.048-.2-.206-.378v-.041h-.125v-.041c-.142-.065-.111.061-.165-.121-.067-.062-.077-.1-.082-.211a2.435,2.435,0,0,0,.454.081v-.039c-.054-.042-.108-.088-.166-.127v-.077a.968.968,0,0,0-.085-.049v-.038h-.082a.681.681,0,0,1-.209-.2c-.045.03,0-.01-.039.039a.525.525,0,0,0-.083.038c-.041.059.018.134-.041.166h-.212c-.023.068-.053.14-.08.211-.161-.046-.092-.085-.206-.162v-.049c-.127-.062-.225.028-.334-.077-.1-.123.029-.187-.126-.293v-.04h-.04v.04h-.293c-.024-.04-.077-.072-.085-.087-.01-.067-.023-.135-.039-.2h-.039v-.041h-.084v-.049c-.166-.027-.331-.047-.5-.079-.14-.1-.031-.2-.3-.252v-.078c-.081-.057-.161-.112-.25-.167v-.042c-.031-.053.005-.005-.037-.045Zm5.065.124h.043v.037c-.043.018-.085.032-.118.046v-.127C563.526,3014.445,563.483,3014.419,563.526,3014.463Zm-4.277.249h.166v.167h-.166Zm4.864.088v.079h-.046v-.079Zm32.906.079h.125v.041h.042v.122c-.047.04,0,0-.042.046h-.125V3015h-.04C596.993,3014.963,597,3014.92,597.019,3014.879Zm-34.617.251h-.039v-.042c-.043-.035,0,0-.042-.046h.081Zm2.206.082c.036.045,0,.007.042.041-.026.081,0,.033-.042.081v.045h-.042v-.045c-.111-.028-.095-.01-.125-.122Zm-.208.25h-.044v-.044c-.043-.035,0,.005-.037-.039h.081Zm-1.371.167c.018-.138.04-.125.085-.211h.124v.126h.039a.491.491,0,0,1-.039.167h-.166C563.047,3015.629,563.075,3015.676,563.029,3015.629Zm2.662.165v.081c-.167-.019-.115-.055-.25-.081v-.083C565.62,3015.713,565.579,3015.734,565.691,3015.794Zm-.5.207c-.083-.025-.043.005-.086-.047C565.192,3015.986,565.143,3015.954,565.192,3016Zm-.958.084v.12h-.085v-.12Zm25.638.416c-.177-.007-.144-.026-.247-.086.033-.136.1-.184.247-.21v-.038c.083.015.166.028.25.038v.046c.217,0,.16.015.3.083v.081A1.614,1.614,0,0,0,589.872,3016.5Zm-1.284,0v-.045h.247v-.041a.591.591,0,0,1,.454.128v.124c-.039.011-.083.026-.122.04-.041.061-.082.112-.126.168h-.084c-.022.081.006.037-.037.081V3017h-.126c-.019-.088-.028-.167-.045-.255h-.036a1.015,1.015,0,0,1-.044-.121h-.456v-.081C588.336,3016.528,588.459,3016.512,588.588,3016.5Zm1.5.288v-.044h-.046c.015-.022.03-.052.046-.078.023-.011.051-.029.079-.043a.356.356,0,0,1,.041.165Zm1.247-.044c.01.029.025.061.034.088.083.012.17.022.255.042a.617.617,0,0,1-.085.162c-.128-.029-.249-.056-.376-.081a.7.7,0,0,1-.082-.211Zm-8.439.917c-.057-.113-.113-.225-.164-.33-.126-.044-.252-.079-.376-.129h-.21v-.038a.371.371,0,0,0-.207-.046.589.589,0,0,1,.376-.036c.058.014-.018.033.041.036.193.026.327-.154.585-.082.026.012.273.128.288.128v-.046c.079-.013.167-.022.246-.036v-.046c.278.014.556.031.836.046.013-.032.025-.055.036-.083a.107.107,0,0,1,.131.037h.743V3017h.332v-.044h.337v-.044h.119v-.037c.123-.042.293.055.338.037v-.037a.3.3,0,0,1,.082-.042c.036.044-.006.007.038.042a.492.492,0,0,1-.081.162H586.3v.082c-.124-.013-.115,0-.164-.082h-.248c-.1.118-.2.224-.292.339-.137-.029-.28-.056-.416-.088v.044c-.123.028-.249.05-.373.084v.041h-.294v.038h-.125v.045h-.7v.042h-.17c-.014.055-.027.11-.044.167Zm-21.608-.75h.044v-.037h.121c-.011.055-.024.106-.039.162h-.126Zm-2.284.171v.12h.043v.05c-.086-.029-.037,0-.086-.05h-.038a.731.731,0,0,1,.038-.12Zm22.891,0v.036c-.07.041-.1-.022-.121-.036Zm-20.024.293c-.015-.044-.029-.088-.041-.123h.041v-.05h.12c.039.05,0,.011.046.05-.025.079,0,.027-.046.079v.044Zm16.91.119c-.035-.048.01,0-.041-.038v-.169c.075.044.068.061.166.088v.119Zm3.322.087.043-.087h.082a.8.8,0,0,1,.042.129c-.093.016-.073.009-.124.081h-.207v-.043h-.044v-.122A1.624,1.624,0,0,1,582.1,3017.582Zm-.539-.042v.084h-.121v-.084Zm-21.4.412v.165c-.047-.038-.008.01-.044-.038-.04-.028-.082-.058-.123-.089v-.076a1.11,1.11,0,0,1,.123-.045C560.143,3017.952,560.116,3017.906,560.163,3017.952Zm2.618.255a.423.423,0,0,0,.124.243.5.5,0,0,1-.041.167.366.366,0,0,1-.209-.043c-.038-.135-.086-.273-.124-.416C562.617,3018.178,562.7,3018.186,562.781,3018.207Zm-2.159,0v.041c.185.008.174.057.292.125v.2c-.129.036-.107.069-.253.09a.454.454,0,0,0-.288-.38v-.077Zm-2.161.124h.126v.042c.142.032.191.139.332.2v.129a2.323,2.323,0,0,1,.33.082v.084c.088.058.124.2.206.249h.126a.744.744,0,0,1,.042.081c.15.137.319.371.54.421a1.087,1.087,0,0,0,.167.416h.161v-.047h.211a1.065,1.065,0,0,0,.045.126h.038v.087h.043v.165c.072.107.137.212.205.331.2-.112.182-.053.416,0,.017.146.052.125.082.244h-.082v.085a2.1,2.1,0,0,1,.251-.033c.037.041-.006,0,.043.033-.006.095-.047.132-.043.167h.043c.013.07.022.14.039.209a1.889,1.889,0,0,1,.205.045,1.409,1.409,0,0,1,.087.122c.07-.014.135-.03.208-.043v.087a.369.369,0,0,1,.287.41,1.941,1.941,0,0,1-.248-.04v.04h-.166v.086a.934.934,0,0,1,.292.045c.071.091.138.19.208.284.025.01.058.032.085.046v.082c.027.016.053.026.081.041v.042h.084c.014-.028.029-.057.041-.083a.931.931,0,0,1,.461.129h.044v.121h.033a1.174,1.174,0,0,1,.042.122c.115-.02.1-.054.212-.081a1.046,1.046,0,0,1,.123-.419h.165c.052.084.132.106.253.128.011.041.025.083.04.129-.114-.021-.223-.031-.333-.046v.046c-.058.009-.109.024-.17.037v.084c.244.14.247.446.625.457v.042c.094.011.193.025.291.04v.163c.068.015.138.033.21.048v.037c.191.052.148-.169.292-.085.2.033.128.081.248.17v.04h.209v.045h.036v.121h.082c.017-.031.03-.057.047-.085.122.028.249.054.376.085v.085c.069.037.063.058.165.083v.042h.33v-.042h.082c.127-.1.045-.152.294-.168.009.113.026.221.037.338.1-.023.137-.079.21,0a1.03,1.03,0,0,1,.043.122c.128.071.12-.09.249.084h.039c-.011.064-.026.138-.039.208h.039v.035c.1.013.2.03.292.048.108-.192.174-.139.413-.128.065.11.138.148.174.292h.5v.039h.081v.042c.041.018.086.024.125.04.014.042.029.083.043.132.109.01.22.02.329.033a.558.558,0,0,0,.043-.082c.085-.009.054.024.085.049s.018,0,.044.077c.194.033.3.035.332.254h.122c.03-.125.024-.112.165-.125v.037c.075.06.193,0,.292.044v.044h.081v.036h.209v.043h.167v.045h.083c.058.068.112.139.163.208h.085v.037h.211v.045c.095.016.194.024.291.037v.047c.178.038.358.083.54.125v.079h-.083a.559.559,0,0,1-.084.171c-.133-.026-.706-.083-.706-.083-.05.036-.015,0-.045.083h.087c.014.049.025.106.037.164.335-.009.762-.078.959.122.049.049.015,0,.037.082.191.033.524.053.708.081v-.081a1.827,1.827,0,0,1,.745.164v.045h-.038c-.045.067.1.04.126.048.036-.079.057-.07.082-.176.322.1.639.2.957.295.187.054.242-.107.375-.08v.043h.128v.037h.2v.042h.081v.045h.211v.037c.117.03.25.06.371.082v.212h-.036c-.128-.1-.3.064-.506,0v-.046h-.121v-.041h-.084v-.041c-.108-.015-.222-.029-.332-.037v-.047c-.247.025-.5.055-.75.084-.014-.059-.028-.106-.037-.166-.279-.012-.554-.028-.835-.037v-.045a1.738,1.738,0,0,0-.582-.122v.167a.849.849,0,0,1,.458.119h.043c.038.08-.033.129-.043.166h.043c.059.145.068.191.247.209.147-.124.41.129.624.079.062-.008.082-.079.082-.079.1-.033.431.15.5.168.212.064.227-.157.411-.089.009.011.083.153.129.131v-.042a.606.606,0,0,0,.084-.123.477.477,0,0,1,.416.287,1.372,1.372,0,0,1,.952-.039v.082h.083c.012-.043.032-.082.043-.128h.37c.009,0,.016-.066.083-.037.045.056.088.113.129.165.11.029.221.056.33.082v.087h.124v-.045c.052-.049.016,0,.042-.079-.045-.052-.017-.01-.042-.088.067-.009.142-.025.209-.039v.039h.206a.356.356,0,0,0,.292.212c.072-.134.129-.171.337-.169a.48.48,0,0,1,.075.169c.061.012.116.025.169.033a.357.357,0,0,0,.042-.078h.083c.032.057.056.112.082.164l.418.09c.038-.079.058-.07.084-.176.165-.021.332-.049.5-.078v-.042c.07-.037.139-.082.207-.125v.043h.13v.045h.162v.037h.168v.042h.5v-.042c.057-.014.111-.026.167-.037.011.037.024.079.042.124h.043v-.045h.291v.045h.082v.033h.164v.047h.081v.039c.135.026.125-.183.416-.086v.047a3.777,3.777,0,0,0,.666.129v-.045a1.183,1.183,0,0,0,.126-.045c.014-.026.024-.052.044-.086a2.659,2.659,0,0,1,.33.131c.065.011.054-.071.084-.084.189-.068.357.148.5.039.124-.033.118-.067.172-.164a1.666,1.666,0,0,0,.577.164v.127h.039v-.037h.169v-.045h.081v-.045h.127v-.039c.144-.047.289.065.373.039.022,0,.038-.127.166-.086.029.047.059.086.082.131h.542v.045c.128.027.249.047.377.078.028,0,0-.1.12-.078v.037c.1.01.2.03.294.041.026-.011.052-.108.123-.123a4.652,4.652,0,0,0,.543.123c.071-.078.135-.168.2-.254.049-.008.425.146.628.086v-.039H590v-.047h.085v-.033h.12v-.045c.214-.068.875.021.955-.042h.043v-.125c.046-.055.189-.039.3-.039v.039h.453v.043h.122v-.043h.087c.014-.039.026-.085.039-.122h.458v-.042h.167v-.039h.081v-.05h.291c.046.085.113.1.168.168.053-.011.109-.026.168-.037v-.042h.286v-.039h.209v-.05h.208v-.034h.21v-.045h.288v-.041h.083v-.045c.168-.041.278.185.5.086v-.041a.768.768,0,0,0,.125-.045.792.792,0,0,0,.042-.077c.119-.039.2.13.333.077v-.038c.043-.008.083-.03.127-.039a.68.68,0,0,1,.038-.087h.123a.59.59,0,0,1,.045-.078h.084a.471.471,0,0,1,.041-.088c.081.019.164.029.246.041v.047h.376a.765.765,0,0,0,.124-.253l.5.042v-.042h.295c.011-.031.025-.055.036-.08-.1-.047-.131-.047-.165-.166a.43.43,0,0,0,.165-.087v-.043c.1.014.2.033.3.043v.166h.2a1.059,1.059,0,0,0,.082-.128c.126-.028.252-.048.374-.081v.043c.05.049.016,0,.044.087h.084v.034h.041v-.034c.043-.019.084-.028.122-.049v-.038h.084v-.043c.126-.023.255-.055.375-.082.043-.1.086-.2.123-.286h.126c.064.071.112.078.249.078.04-.07.061-.065.084-.161h.2c.055-.118.055-.153.209-.167.048.038,0,.014.089.038a.928.928,0,0,1,.121.25h.29c.014-.025.028-.057.041-.085h.043c.011-.079.024-.165.039-.245h.21v.042h.17v-.042c.108.012.221.021.33.042.012-.082.08-.183.039-.291-.027-.017-.053-.03-.079-.045a1.715,1.715,0,0,1,.04-.208c.136-.051.245-.051.29-.2.111.008.22.022.334.037.033-.119.01-.1.12-.127a.451.451,0,0,1,.335-.083v.044h.207v.039h.208a.71.71,0,0,0,.039-.083.605.605,0,0,1,.292-.033c.026-.119.048-.119.127-.172v-.042H604c.039-.02,0-.048.125-.084.03-.1.055-.19.085-.288h.248c.012-.04.028-.08.041-.122-.122-.079-.16-.179-.171-.376h.048v-.168c.02-.052.02.016.04-.043a.7.7,0,0,0,.252.087c.011.069.026.137.039.2a.373.373,0,0,0,.21.09c.027-.058.061-.058.082-.09.074-.1-.047-.075.124-.12.024-.128.056-.249.078-.376h.046c.014-.027.029-.057.039-.08h.089v-.048a1.427,1.427,0,0,0,.414.085,1.784,1.784,0,0,1,.124-.288c.142.03.376.136.456.084.113-.069.124-.111.124-.293h.042v-.411h.042v-.046h-.042v-.083c-.042-.014-.085-.029-.121-.044v.044h-.045v.083c-.04.083-.049.07-.166.083-.035-.05,0,0-.041-.037-.014-.088-.026-.173-.045-.257.051-.021.067-.067.086-.082h.085v-.037l.2.037a.443.443,0,0,0,.042-.082,1.631,1.631,0,0,1,.208.045v-.045h.048c.077-.116-.082-.108.119-.165.1-.092.39.02.541.045.077-.131.205-.131.249-.3h.041v-.122a4.968,4.968,0,0,0,.5.122c.028-.137.058-.273.087-.41.119-.03.13-.051.165-.165h.078v-.046c.046.017.089.027.129.046v-.046h.04c-.055-.138-.063-.358-.123-.5h.043v-.039h.08c.027-.044.056-.087.084-.124.15.022.179.136.248-.09-.069-.039-.052-.018-.082-.117.123-.069.158-.147.332-.165v12.377H558.461C558.461,3027.878,558.494,3022.753,558.461,3018.331Zm3.488.08h.038v-.038h.128v.164h-.166Zm10.388,1.121c-.017.068-.026.144-.041.207-.058.018-.111.023-.169.044v-.044h-.039c.03-.084.056-.166.081-.248C572.224,3019.511,572.284,3019.518,572.337,3019.532Zm-7.853,1v.079h.166v.087h-.123v-.044c-.113-.035-.1-.009-.127-.122Zm.291.166v.076h-.043v-.076Zm.952.409v.087h-.036v-.087Zm.336.176v.12a1.082,1.082,0,0,0-.128.045c.016-.057.032-.114.043-.165Zm-4.2.408c.012.059.029.112.039.167h-.124v-.04h-.039v-.127Zm5.691.253h.043v.04h-.043v.085c-.142-.029-.216-.064-.244-.211C567.462,3021.858,567.5,3021.85,567.558,3021.944Zm-4.777-.036c.1.016.091.036.165.076-.037.048.006.009-.041.04-.012.03-.03.057-.041.086-.045-.034-.009,0-.043-.041C562.7,3021.984,562.743,3022.024,562.781,3021.908Zm5.525.247c.024.08-.008.033.044.08-.015.04-.03.085-.044.122h-.085v-.2Zm2.454.832a1.189,1.189,0,0,1-.457-.129.6.6,0,0,1-.086-.373c.049-.036,0,0,.043-.046.07.01.136.032.21.046v.038h.041c-.014.07-.031.142-.041.21h.041v.036h.16v.048a.681.681,0,0,1,.127.041C570.787,3022.9,570.774,3022.939,570.76,3022.987Zm1.328.2c.189.029.1.035.208.126v.04h.122v.044c.129.035.4-.146.461-.126v.042a.273.273,0,0,1,.164.2c-.111.033-.092.011-.125.128a1.166,1.166,0,0,0-.124.042v-.042h-.163v-.043h-.13v-.037c-.152-.033-.3-.061-.454-.085A1.056,1.056,0,0,1,572.088,3023.19Zm2.867,3.406v.123a.938.938,0,0,0-.167.043v-.043H574.7c-.01-.041-.03-.082-.038-.123h.038v-.043C574.788,3026.569,574.87,3026.588,574.955,3026.6Zm2,.664a.376.376,0,0,1,.244.125h-.036a.3.3,0,0,1-.208.167.531.531,0,0,1-.082-.167h.042C576.922,3027.348,576.935,3027.3,576.951,3027.26Z" fill="#fff" fill-rule="evenodd"/>
    <g id="Grupo_201" data-name="Grupo 201">
      <path id="Trazado_205" data-name="Trazado 205" d="M631.951,2999h3.3v16.6h4.15c.4.058.564-.111.507-.507V3000.52h3.221v15.159q.167,2.709-2.542,2.541H623.822v-17.7h3.387v15.075h4.742Z" fill="#fff"/>
      <path id="Trazado_206" data-name="Trazado 206" d="M649.4,2999.506l.424-.6h3.556l-.255.6h12.026v2.962h-13.3l-1.946,3.728H654.4v-2.626h3.217v2.626h7.367v2.962h-7.367v7.115q.168,2.113-1.609,1.947h-3.812v-2.2h1.863a.227.227,0,0,0,.258-.253v-6.608h-8.3v-2.624l2.2-4.066h-2.2v-2.962Zm-1.44,16.089,2.118-5.166h3.217l-2.793,6.776a1.329,1.329,0,0,1-1.526.932h-2.963v-2.2h1.439A.452.452,0,0,0,647.958,3015.595Zm14.567,2.542a1.276,1.276,0,0,1-1.525-1.019l-2.2-6.774h3.047l1.78,5.166c.112.338.308.481.593.423h1.015v2.2Z" fill="#fff"/>
      <path id="Trazado_207" data-name="Trazado 207" d="M667.52,3001.791v-2.285h2.118v-.849H672.6v.849h8.554v-.933h2.88v.933l2.371-.087v2.372h-2.371v1.018h2.455v2.37h-8.045v1.017h7.707v5.927q.42,3.137-3.219,2.795h-1.016l.338.337a1.6,1.6,0,0,0,1.018.593h3.217v2.034h-4.827a3.1,3.1,0,0,1-1.777-.677l-1.949-2.287h-1.609l-2.286,2.2a2.932,2.932,0,0,1-2.287.931h-4.149v-2.116h3.471a2.05,2.05,0,0,0,1.017-.507l.422-.508h-4.658V3006.2H675.4v-1.017H667.52v-2.37h2.118v-1.018Zm7.792,7.623v-.931h-4.489v.931Zm0,2.286h-4.489v1.016h4.489Zm-2.711-8.891h8.469v-1.018H672.6Zm5.844,6.6h4.828v-.931h-4.828Zm4.912,2.286H678.53v1.016H683.1c.114,0,.2-.111.254-.34Z" fill="#fff"/>
      <path id="Trazado_208" data-name="Trazado 208" d="M688.945,3001.283h.849a1.32,1.32,0,0,0,1.354-.593l1.269-1.948H704.36l1.354,1.778a2.024,2.024,0,0,0,1.61.678H708v2.456h-2.54a2.451,2.451,0,0,1-2.372-1.354l-.76-1.017h-7.793l-1.269,1.61q-.51,1.1-2.2.93h-2.119Zm.425,5.59V3004.5h18.207v2.372H700.04v1.27h7.537v2.37h-7.621v5.335H708v2.2H689.03v-2.2h7.877V3010.6h-7.623v-2.37h7.539v-1.354Zm2.54,8.045a1.959,1.959,0,0,1-1.948-1.44l-.592-2.032h2.965l.169.593a1.183,1.183,0,0,0,1.015.594h2.118v2.285Zm9.4-2.285h2.033c.453.057.705-.172.76-.678l.089-.593h3.133l-.34,1.945c-.226,1.13-.79,1.727-1.693,1.781h-3.982Z" fill="#fff"/>
    </g>
    <g id="Grupo_202" data-name="Grupo 202">
      <path id="Trazado_209" data-name="Trazado 209" d="M623.822,3028.192l1.324-.131a1.619,1.619,0,0,0,.484.978,1.466,1.466,0,0,0,.989.311,1.524,1.524,0,0,0,.991-.274.834.834,0,0,0,.332-.651.6.6,0,0,0-.142-.408,1.134,1.134,0,0,0-.487-.3c-.159-.053-.524-.153-1.091-.29a3.78,3.78,0,0,1-1.536-.668,1.754,1.754,0,0,1-.621-1.358,1.734,1.734,0,0,1,.292-.961,1.84,1.84,0,0,1,.842-.685,3.394,3.394,0,0,1,1.327-.234,2.839,2.839,0,0,1,1.909.557,1.95,1.95,0,0,1,.674,1.485l-1.361.061a1.152,1.152,0,0,0-.374-.749,1.381,1.381,0,0,0-.861-.228,1.54,1.54,0,0,0-.929.246.488.488,0,0,0-.218.417.521.521,0,0,0,.2.41,3.6,3.6,0,0,0,1.25.45,6.721,6.721,0,0,1,1.469.483,1.884,1.884,0,0,1,.745.688,2,2,0,0,1,.27,1.072,1.98,1.98,0,0,1-.322,1.086,1.922,1.922,0,0,1-.91.752,3.868,3.868,0,0,1-1.466.244,2.9,2.9,0,0,1-1.964-.591A2.559,2.559,0,0,1,623.822,3028.192Z" fill="#fff"/>
      <path id="Trazado_210" data-name="Trazado 210" d="M630.453,3030.383v-6.741h1.361v2.652h2.667v-2.652h1.36v6.741h-1.36v-2.949h-2.667v2.949Z" fill="#fff"/>
      <path id="Trazado_211" data-name="Trazado 211" d="M643.327,3030.383h-1.48l-.588-1.531h-2.694l-.558,1.531h-1.444l2.625-6.741h1.442Zm-2.507-2.667-.928-2.5-.909,2.5Z" fill="#fff"/>
      <path id="Trazado_212" data-name="Trazado 212" d="M644.065,3030.383v-6.741h1.321l2.759,4.5v-4.5h1.266v6.741h-1.366l-2.716-4.4v4.4Z" fill="#fff"/>
      <path id="Trazado_213" data-name="Trazado 213" d="M650.846,3023.642h2.487a4.891,4.891,0,0,1,1.283.128,2.283,2.283,0,0,1,1.017.621,2.944,2.944,0,0,1,.643,1.091,4.959,4.959,0,0,1,.221,1.592,4.467,4.467,0,0,1-.207,1.437,2.986,2.986,0,0,1-.722,1.191,2.424,2.424,0,0,1-.957.538,4.148,4.148,0,0,1-1.2.143h-2.561Zm1.359,1.14v4.466h1.017a3.684,3.684,0,0,0,.824-.066,1.23,1.23,0,0,0,.55-.28,1.46,1.46,0,0,0,.356-.652,4.468,4.468,0,0,0,.137-1.233,4.109,4.109,0,0,0-.137-1.2,1.525,1.525,0,0,0-.386-.651,1.287,1.287,0,0,0-.632-.318,6.135,6.135,0,0,0-1.117-.065Z" fill="#fff"/>
      <path id="Trazado_214" data-name="Trazado 214" d="M657.375,3027.054a4.27,4.27,0,0,1,.308-1.729,3.192,3.192,0,0,1,.627-.926,2.661,2.661,0,0,1,.873-.6,3.676,3.676,0,0,1,1.453-.268,3.174,3.174,0,0,1,2.383.923,4.13,4.13,0,0,1,.007,5.126,3.13,3.13,0,0,1-2.372.922,3.166,3.166,0,0,1-2.391-.918A3.471,3.471,0,0,1,657.375,3027.054Zm1.4-.047a2.519,2.519,0,0,0,.53,1.736,1.821,1.821,0,0,0,2.679.005,2.591,2.591,0,0,0,.52-1.76,2.531,2.531,0,0,0-.508-1.729,1.887,1.887,0,0,0-2.706.007A2.551,2.551,0,0,0,658.777,3027.007Z" fill="#fff"/>
      <path id="Trazado_215" data-name="Trazado 215" d="M664.99,3030.383v-6.741h1.324l2.759,4.5v-4.5h1.265v6.741h-1.366l-2.717-4.4v4.4Z" fill="#fff"/>
      <path id="Trazado_216" data-name="Trazado 216" d="M674.913,3027.9v-1.136h2.933v2.686a3.738,3.738,0,0,1-1.238.728,4.53,4.53,0,0,1-1.644.315,3.677,3.677,0,0,1-1.843-.443,2.819,2.819,0,0,1-1.183-1.27,4.1,4.1,0,0,1-.4-1.8,3.883,3.883,0,0,1,.443-1.87,2.983,2.983,0,0,1,1.292-1.257,3.507,3.507,0,0,1,1.613-.335,3.232,3.232,0,0,1,1.963.528,2.375,2.375,0,0,1,.907,1.454l-1.352.253a1.414,1.414,0,0,0-.536-.784,1.616,1.616,0,0,0-.982-.286,1.856,1.856,0,0,0-1.42.563,2.4,2.4,0,0,0-.525,1.681,2.643,2.643,0,0,0,.533,1.8,1.781,1.781,0,0,0,1.4.6,2.357,2.357,0,0,0,.857-.166,2.95,2.95,0,0,0,.737-.407v-.856Z" fill="#fff"/>
      <path id="Trazado_217" data-name="Trazado 217" d="M684.853,3027.9v-1.136h2.933v2.686a3.732,3.732,0,0,1-1.235.728,4.557,4.557,0,0,1-1.646.315,3.693,3.693,0,0,1-1.845-.443,2.811,2.811,0,0,1-1.179-1.27,4.071,4.071,0,0,1-.4-1.8,3.893,3.893,0,0,1,.441-1.87,2.988,2.988,0,0,1,1.294-1.257,3.507,3.507,0,0,1,1.613-.335,3.23,3.23,0,0,1,1.963.528,2.36,2.36,0,0,1,.9,1.454l-1.349.253a1.426,1.426,0,0,0-.537-.784,1.616,1.616,0,0,0-.982-.286,1.847,1.847,0,0,0-1.418.563,2.391,2.391,0,0,0-.527,1.681,2.648,2.648,0,0,0,.533,1.8,1.786,1.786,0,0,0,1.4.6,2.353,2.353,0,0,0,.857-.166,2.934,2.934,0,0,0,.737-.407v-.856Z" fill="#fff"/>
      <path id="Trazado_218" data-name="Trazado 218" d="M688.767,3027.054a4.27,4.27,0,0,1,.308-1.729,3.243,3.243,0,0,1,.624-.926,2.711,2.711,0,0,1,.875-.6,3.679,3.679,0,0,1,1.453-.268,3.171,3.171,0,0,1,2.383.923,4.132,4.132,0,0,1,.008,5.126,3.133,3.133,0,0,1-2.372.922,3.166,3.166,0,0,1-2.392-.918A3.479,3.479,0,0,1,688.767,3027.054Zm1.4-.047a2.529,2.529,0,0,0,.528,1.736,1.728,1.728,0,0,0,1.345.59,1.7,1.7,0,0,0,1.334-.585,2.581,2.581,0,0,0,.523-1.76,2.546,2.546,0,0,0-.507-1.729,1.891,1.891,0,0,0-2.709.007A2.562,2.562,0,0,0,690.169,3027.007Z" fill="#fff"/>
      <path id="Trazado_219" data-name="Trazado 219" d="M696.4,3030.383V3023.7h1.361v5.551h3.383v1.135Z" fill="#fff"/>
      <path id="Trazado_220" data-name="Trazado 220" d="M702.116,3023.642H704.6a4.9,4.9,0,0,1,1.283.128,2.292,2.292,0,0,1,1.018.621,2.945,2.945,0,0,1,.643,1.091,4.99,4.99,0,0,1,.22,1.592,4.385,4.385,0,0,1-.208,1.437,2.984,2.984,0,0,1-.721,1.191,2.416,2.416,0,0,1-.957.538,4.157,4.157,0,0,1-1.2.143h-2.56Zm1.361,1.14v4.466h1.015a3.645,3.645,0,0,0,.822-.066,1.215,1.215,0,0,0,.55-.28,1.4,1.4,0,0,0,.355-.652,4.342,4.342,0,0,0,.139-1.233,4,4,0,0,0-.139-1.2,1.514,1.514,0,0,0-.385-.651,1.28,1.28,0,0,0-.63-.318,6.156,6.156,0,0,0-1.118-.065Z" fill="#fff"/>
    </g>
  </g>
</svg>
