<?xml version="1.0" encoding="UTF-8"?>
<!-- Generator: Adobe Illustrator 23.0.4, SVG Export Plug-In . SVG Version: 6.00 Build 0)  -->
<svg version="1.1" id="Capa_1" xmlns="http://www.w3.org/2000/svg" xmlns:xlink="http://www.w3.org/1999/xlink" x="0px" y="0px" viewBox="0 0 296.4 149.2" style="enable-background:new 0 0 296.4 149.2;" xml:space="preserve">
<style type="text/css">
	.st0{fill:#AE9A64;}
	.st1{fill:#00537F;}
</style>
<g>
	<path class="st0" d="M105.2,105.7h86.1c0-23.8-19.3-43-43-43C124.4,62.6,105.2,81.9,105.2,105.7"/>
	<path class="st0" d="M97.2,99.5l-54.7,6l1.5,0.2h52.8C96.8,103.6,97,101.5,97.2,99.5 M51.8,61.7C65.4,100.6,83.3,71,99,90.9   c1.3-4.5,3.3-8.7,5.7-12.6C87.9,66,65.7,93,51.8,61.7 M116.5,65.2L73.6,30.8L108,73.7C110.5,70.6,113.3,67.7,116.5,65.2    M123.8,60.4c4-2.2,8.4-3.8,12.9-4.8C133.4,35.1,98.8,38.5,111,6.5C93.2,43.6,126.7,35.4,123.8,60.4 M148.2,54.3   c2,0,3.9,0.1,5.9,0.3L148,0l-6,54.7C144,54.4,146.1,54.3,148.2,54.3 M193.1,9.8c-38.7,13.6-9.6,31.4-28.8,47   c4.4,1.4,8.5,3.5,12.3,6C188.8,46,161.8,23.8,193.1,9.8 M188.4,73.7l34.4-42.9l-42.9,34.4C183,67.7,185.9,70.6,188.4,73.7    M247.6,69.8c-36.9-17.7-29,15.3-53.5,12.9c2,4,3.5,8.3,4.4,12.9C219,92.2,215.7,57.6,247.6,69.8 M252.3,105.7l1.5-0.2l-54.7-6   c0.2,2,0.4,4.1,0.4,6.2H252.3z"/>
	<g>
		<path class="st1" d="M14.7,114.1c0.5,1.7,1.1,3.8,1.9,6.1c0.8,2.4,1.6,4.9,2.5,7.5c0.9,2.6,1.8,5,2.8,7.2c0.7-1.9,1.4-3.8,2.1-5.8    c0.7-2,1.4-4.2,2.3-6.8c0.6-1.9,1.2-3.8,1.8-5.7c0.6-1.9,1.2-3.8,1.7-5.7c0.6,0.2,1.3,0.3,1.9,0.4c0.6,0.1,1.2,0.1,1.8,0.1    c0.8,0,1.5-0.1,2-0.2c0.6-0.1,1.1-0.2,1.7-0.3c-1.1,2.4-2.1,4.9-3.2,7.3c-1.1,2.4-2.1,4.9-3.1,7.4c-0.8,2.2-1.6,4.2-2.4,6.1    c-0.7,1.9-1.5,3.7-2.2,5.5c-0.7,1.8-1.4,3.6-2.1,5.5c-0.7,1.9-1.4,3.9-2.2,6.1c-1.3-0.3-2.5-0.5-3.8-0.5c-0.6,0-1.2,0-1.8,0.1    c-0.6,0.1-1.2,0.2-1.8,0.4c-0.2-0.8-0.6-2-1.1-3.4c-0.5-1.4-1.1-3.1-1.7-4.9c-0.7-1.8-1.4-3.7-2.1-5.8c-0.8-2-1.5-4.1-2.3-6.1    c-0.8-2-1.5-4-2.3-6c-0.8-1.9-1.5-3.7-2.1-5.3c-0.7-1.6-1.2-2.9-1.7-4.1c-0.5-1.1-0.8-1.9-1.1-2.3c1.2,0.1,2.5,0.3,3.7,0.3    c1.2,0.1,2.4,0.1,3.7,0.1c2.2,0,4.3-0.2,6.5-0.5C13.9,111.3,14.2,112.4,14.7,114.1z"/>
		<path class="st1" d="M57,143.5c0.5,0,1.2,0,2,0c0.9,0,1.8,0,2.7-0.1c1,0,1.9-0.1,2.8-0.1c0.9-0.1,1.6-0.1,2.2-0.1    c-0.1,0.5-0.1,1-0.2,1.5c-0.1,0.5-0.1,1-0.1,1.5c0,0.5,0,0.9,0.1,1.4c0.1,0.5,0.1,0.9,0.2,1.3c-2.2-0.2-4.3-0.3-6.4-0.4    c-2.1-0.1-4.3-0.1-6.4-0.1c-2.2,0-4.3,0-6.5,0.1c-2.2,0.1-4.3,0.2-6.5,0.4c0.1-0.7,0.2-1.4,0.2-2.1c0.1-0.7,0.1-1.5,0.1-2.4    c0-0.9,0-2,0.1-3.3c0-1.3,0-2.9,0-5v-5.8c0-2.8,0-5.1,0-6.9c0-1.8,0-3.4-0.1-4.8c0-1.4-0.1-2.6-0.2-3.8c-0.1-1.2-0.2-2.5-0.3-3.9    c1.8,0.1,3.7,0.2,5.5,0.3c1.8,0.1,3.7,0.1,5.5,0.1c1,0,2.2,0,3.5,0c1.3,0,2.7,0,4,0c1.4,0,2.7-0.1,3.9-0.1    c1.3-0.1,2.4-0.1,3.3-0.2c-0.1,0.5-0.1,1-0.2,1.4c-0.1,0.4-0.1,0.9-0.1,1.4c0,0.5,0,1,0.1,1.5c0.1,0.5,0.1,1,0.2,1.5    c-1.3-0.1-2.7-0.1-4-0.2c-1.3-0.1-2.6-0.1-3.9-0.1h-5.6v10.4c0.4,0,1.1,0,1.9,0c0.8,0,1.8,0,3-0.1c1.1,0,2.4-0.1,3.8-0.2    c1.4-0.1,2.8-0.2,4.3-0.3c-0.1,0.5-0.1,1-0.2,1.4c-0.1,0.4-0.1,0.9-0.1,1.4c0,0.9,0.1,1.9,0.3,2.9c-1.1-0.1-2.1-0.1-3-0.2    c-1-0.1-2-0.1-3-0.2c-1-0.1-2.1-0.1-3.2-0.1c-1.1,0-2.4,0-3.8,0v12.1H57z"/>
		<path class="st1" d="M87.2,143.5c1.1,0,2.2-0.1,3.5-0.1c1.3-0.1,2.6-0.1,3.9-0.2c1.3-0.1,2.4-0.2,3.2-0.3    c-0.1,0.4-0.1,0.8-0.2,1.4c-0.1,0.5-0.1,1.1-0.1,1.7c0,0.5,0,1,0.1,1.5c0.1,0.5,0.1,1,0.2,1.5c-2.2-0.2-4.2-0.3-6-0.4    c-1.7-0.1-3.5-0.1-5.2-0.1c-1.9,0-4.1,0-6.6,0.1c-2.5,0.1-5,0.2-7.7,0.4c0.3-1.6,0.5-3.2,0.6-4.9c0.1-1.7,0.2-3.4,0.2-4.9v-2.8    c0-1.7,0-3.2,0-4.6c0-1.4,0-2.7-0.1-3.9c0-1.2,0-2.4-0.1-3.6c0-1.1-0.1-2.3-0.1-3.6c-0.1-1.6-0.1-3.3-0.2-5c0-1.7-0.1-3.3-0.3-4.6    c2.2,0.3,4.5,0.5,6.8,0.5c1.1,0,2.1,0,3.2-0.1c1-0.1,2-0.2,3.1-0.4c-0.1,0.9-0.2,2.1-0.2,3.7c-0.1,1.5-0.1,3.2-0.2,4.9    c-0.1,1.7-0.1,3.4-0.1,5.1c0,1.7,0,3.2,0,4.4v2.4c0,0.5,0,1.3,0,2.5c0,1.1,0,2.4,0,3.6c0,1.3,0,2.5,0,3.6c0,1.1,0,1.9,0,2.3    C85.5,143.5,86.2,143.5,87.2,143.5z"/>
		<path class="st1" d="M108,148.9c-0.6-0.1-1.2-0.3-1.8-0.3c-0.6-0.1-1.2-0.1-1.8-0.1c-0.6,0-1.2,0-1.8,0.1    c-0.6,0.1-1.1,0.2-1.6,0.3l3.1-7c0.5-1.1,1-2.3,1.6-3.7c0.6-1.4,1.2-2.9,1.9-4.5c0.7-1.6,1.3-3.2,2-5c0.7-1.7,1.4-3.5,2.1-5.2    c0.4-1,0.8-2.1,1.3-3.4c0.5-1.3,1-2.6,1.4-3.8c0.5-1.3,0.9-2.4,1.3-3.4c0.4-1,0.7-1.7,0.8-2.1c0.6,0.1,1.2,0.3,1.9,0.3    c0.6,0.1,1.3,0.1,1.9,0.1c0.6,0,1.3,0,1.9-0.1c0.6-0.1,1.3-0.2,1.9-0.3c0.4,1.3,0.9,2.8,1.5,4.5c0.6,1.7,1.2,3.5,1.9,5.4    c0.7,1.9,1.4,3.8,2.1,5.7c0.7,1.9,1.4,3.6,2,5.3c0.7,1.9,1.4,3.5,2,5c0.6,1.4,1.1,2.8,1.7,4.1c0.5,1.3,1.1,2.6,1.7,3.9    c0.6,1.3,1.2,2.8,2,4.3c-1-0.2-2.2-0.3-3.4-0.4c-1.3-0.1-2.4-0.1-3.5-0.1c-1.1,0-2.3,0-3.4,0.1c-1.1,0.1-2.3,0.2-3.4,0.3    c-0.4-1.3-0.7-2.6-1.1-3.9c-0.4-1.2-0.8-2.5-1.2-3.7c-1.2,0-2.3,0-3.5,0c-1.2,0-2.3,0-3.5,0c-0.9,0-1.8,0-2.8,0    c-0.9,0-1.9,0-2.8,0c-0.5,1.2-0.9,2.5-1.3,3.8C108.8,146.3,108.4,147.6,108,148.9z M112,136.5c0.4,0,0.8,0.1,1.2,0.1    c0.4,0,0.8,0,1.2,0h2.3h2.3c0.4,0,0.8,0,1.2,0c0.4,0,0.8,0,1.2-0.1l-4.6-12.3L112,136.5z"/>
		<path class="st1" d="M180,135c-0.4,1.8-1.1,3.4-1.9,4.9c-0.8,1.5-1.8,2.8-2.9,3.9c-1.1,1.1-2.4,2.1-3.8,2.7    c-0.9,0.5-1.8,0.8-2.5,1.1c-0.8,0.3-1.5,0.5-2.3,0.7c-0.8,0.2-1.5,0.3-2.4,0.4c-0.8,0.1-1.7,0.1-2.7,0.1c-1.8,0-3.7-0.1-5.5-0.2    c-1.8-0.2-3.6-0.2-5.5-0.2c-1.3,0-2.5,0.1-3.8,0.2c-1.3,0.1-2.5,0.2-3.7,0.3c0.2-2.9,0.3-5.6,0.4-8.2c0.1-2.6,0.2-5.4,0.2-8.2    c0-3.5,0-7-0.1-10.5c-0.1-3.5-0.2-7.1-0.4-11c1.1,0.1,2.1,0.3,3.2,0.3c1.1,0.1,2.1,0.1,3.2,0.1c1.8,0,3.6-0.1,5.3-0.2    c1.7-0.2,3.5-0.2,5.3-0.2c2.4,0,4.7,0.2,6.8,0.6c2.1,0.4,4.1,1.3,6.2,2.6c1.3,0.8,2.4,1.8,3.3,2.9c1,1.1,1.7,2.4,2.4,3.7    c0.6,1.3,1.1,2.7,1.4,4.2c0.3,1.5,0.4,2.9,0.4,4.4C180.7,131.4,180.4,133.2,180,135z M167,121.9c-0.5-1.9-1.2-3.3-2.1-4.3    c-0.9-1-1.9-1.6-3.1-1.9c-1.2-0.3-2.4-0.4-3.7-0.4c-0.8,0-1.6,0.1-2.5,0.2c-0.1,1.5-0.1,3-0.2,4.4c0,1.4-0.1,2.9-0.1,4.5    c0,1.4,0,2.9,0,4.7c0,1.7,0,3.5,0,5.4c0,1.8,0,3.6,0,5.3c0,1.7,0,3.3,0,4.7c0.3,0,0.5,0.1,0.8,0.1c0.2,0,0.5,0,0.8,0h1.6    c1.8,0,3.3-0.3,4.4-0.9c1.2-0.6,2.1-1.5,2.8-2.8c0.7-1.2,1.2-2.8,1.4-4.7c0.3-1.9,0.4-4.1,0.4-6.6    C167.8,126.3,167.6,123.8,167,121.9z"/>
		<path class="st1" d="M202.1,143.5c0.5,0,1.2,0,2,0c0.9,0,1.8,0,2.7-0.1c1,0,1.9-0.1,2.8-0.1c0.9-0.1,1.6-0.1,2.2-0.1    c-0.1,0.5-0.1,1-0.2,1.5c-0.1,0.5-0.1,1-0.1,1.5c0,0.5,0,0.9,0.1,1.4c0.1,0.5,0.1,0.9,0.2,1.3c-2.2-0.2-4.3-0.3-6.4-0.4    c-2.1-0.1-4.3-0.1-6.4-0.1c-2.2,0-4.3,0-6.5,0.1c-2.2,0.1-4.3,0.2-6.5,0.4c0.1-0.7,0.2-1.4,0.2-2.1c0.1-0.7,0.1-1.5,0.1-2.4    c0-0.9,0-2,0.1-3.3c0-1.3,0-2.9,0-5v-5.8c0-2.8,0-5.1,0-6.9c0-1.8,0-3.4-0.1-4.8c0-1.4-0.1-2.6-0.2-3.8c-0.1-1.2-0.2-2.5-0.3-3.9    c1.8,0.1,3.7,0.2,5.5,0.3c1.8,0.1,3.7,0.1,5.5,0.1c1,0,2.2,0,3.5,0c1.3,0,2.7,0,4,0c1.4,0,2.7-0.1,3.9-0.1    c1.3-0.1,2.4-0.1,3.3-0.2c-0.1,0.5-0.1,1-0.2,1.4c-0.1,0.4-0.1,0.9-0.1,1.4c0,0.5,0,1,0.1,1.5c0.1,0.5,0.1,1,0.2,1.5    c-1.3-0.1-2.7-0.1-4-0.2c-1.3-0.1-2.6-0.1-3.9-0.1h-5.6v10.4c0.4,0,1.1,0,1.9,0c0.8,0,1.8,0,3-0.1c1.1,0,2.4-0.1,3.8-0.2    c1.4-0.1,2.8-0.2,4.3-0.3c-0.1,0.5-0.1,1-0.2,1.4c-0.1,0.4-0.1,0.9-0.1,1.4c0,0.9,0.1,1.9,0.3,2.9c-1.1-0.1-2.1-0.1-3-0.2    c-1-0.1-2-0.1-3-0.2c-1-0.1-2.1-0.1-3.2-0.1c-1.1,0-2.4,0-3.8,0v12.1H202.1z"/>
		<path class="st1" d="M245.1,136.4c0.9,1.4,1.8,2.9,2.7,4.3c0.9,1.4,1.8,2.9,2.8,4.3c0.9,1.4,1.8,2.7,2.6,3.9    c-1.2-0.1-2.5-0.3-3.7-0.3c-1.2-0.1-2.5-0.1-3.7-0.1c-1.2,0-2.3,0-3.4,0.1c-1.1,0.1-2.2,0.2-3.3,0.3c-1.4-2.8-2.8-5.5-4.3-8.2    c-1.4-2.7-3-5.4-4.7-8.2h-0.2c0,2.3,0,5,0.1,7.9c0.1,2.9,0.1,5.7,0.3,8.5c-1-0.1-2-0.3-3.1-0.3c-1-0.1-2.1-0.1-3.2-0.1    c-1,0-2,0-3.1,0.1c-1.1,0.1-2.2,0.2-3.4,0.3c0.2-1.8,0.3-3.9,0.5-6.4c0.1-2.5,0.2-5,0.2-7.5c0-1.2,0-2.6,0-4.4    c0-1.7,0-3.7-0.1-5.8c0-2.1-0.1-4.4-0.2-6.7c-0.1-2.3-0.2-4.7-0.3-7.1c1.2,0.2,2.5,0.3,3.7,0.4c1.2,0.1,2.4,0.1,3.5,0.1    c1.7,0,3.4-0.1,5.1-0.2c1.7-0.2,3.4-0.2,5.1-0.2c1.8,0,3.5,0.1,5.3,0.4c1.8,0.2,3.4,0.7,4.8,1.5c1.4,0.7,2.6,1.7,3.5,3.1    c0.9,1.3,1.4,3.1,1.4,5.3c0,2.7-0.8,4.8-2.3,6.2c-1.5,1.5-3.6,2.5-6.1,3l1.2,2C243.5,133.6,244.3,134.9,245.1,136.4z M230.5,128.4    c0.2,0,0.3,0,0.5,0h1c2.2,0,3.7-0.6,4.6-1.8c0.9-1.2,1.3-2.9,1.3-4.9c0-1.5-0.2-2.6-0.6-3.5c-0.4-0.8-0.9-1.5-1.5-1.9    c-0.6-0.4-1.3-0.7-2-0.8c-0.7-0.1-1.4-0.2-2-0.2c-0.3,0-0.6,0-0.8,0c-0.3,0-0.6,0-0.8,0.1v12.9    C230.1,128.4,230.3,128.4,230.5,128.4z"/>
		<g>
			<path class="st1" d="M283.2,111.7c2.6,0.8,5,2.1,6.9,3.7c2,1.6,3.5,3.6,4.6,6c1.1,2.4,1.7,5.1,1.7,8.3c0,3.3-0.6,6.2-1.7,8.7     c-1.1,2.5-2.7,4.5-4.6,6.1c-2,1.6-4.3,2.8-7,3.6c-2.7,0.8-5.6,1.1-8.6,1.1c-2.9,0-5.6-0.4-8.2-1.2c-2.6-0.8-4.8-2.1-6.8-3.7     c-1.9-1.6-3.5-3.7-4.6-6.1c-1.1-2.4-1.7-5.2-1.7-8.2c0-3.2,0.5-6,1.6-8.4c1.1-2.4,2.6-4.4,4.5-6.1c1.9-1.6,4.2-2.9,6.8-3.7     c2.6-0.8,5.4-1.2,8.5-1.2C277.7,110.5,280.6,110.9,283.2,111.7z M278.4,144.3c0.9-0.5,1.7-1.1,2.3-1.9c0.6-0.8,1.1-1.7,1.5-2.8     c0.4-1.1,0.7-2.1,0.9-3.3c0.2-1.1,0.4-2.2,0.4-3.4c0.1-1.1,0.1-2.2,0.1-3.1c0-1.5-0.1-3.2-0.3-4.9c-0.2-1.7-0.6-3.4-1.2-4.9     c-0.6-1.5-1.5-2.7-2.7-3.7c-1.2-1-2.8-1.5-4.7-1.5c-1.9,0-3.4,0.5-4.5,1.4c-1.1,0.9-2,2.1-2.7,3.5c-0.6,1.4-1.1,3-1.3,4.6     c-0.2,1.7-0.3,3.2-0.3,4.7c0,1.1,0,2.3,0.1,3.5c0.1,1.2,0.2,2.4,0.4,3.6c0.2,1.2,0.5,2.3,0.9,3.4c0.4,1.1,0.9,2,1.6,2.8     c0.7,0.8,1.5,1.5,2.5,2c1,0.5,2.2,0.7,3.6,0.7C276.4,145,277.5,144.8,278.4,144.3z"/>
		</g>
	</g>
</g>
</svg>