<svg width="55" height="52" viewBox="0 0 55 52" fill="none" xmlns="http://www.w3.org/2000/svg">
<path d="M36.6269 21.5367C43.2473 21.5367 48.5436 26.7409 48.5436 33.2462C48.5436 35.5361 47.8815 37.6959 46.7163 39.4913L54.8727 47.5579L51.1917 51.1748L42.9295 43.1863C41.1023 44.3052 38.9308 44.9558 36.6269 44.9558C30.0065 44.9558 24.7102 39.7515 24.7102 33.2462C24.7102 26.7409 30.0065 21.5367 36.6269 21.5367ZM36.6269 26.7409C34.8711 26.7409 33.1871 27.4263 31.9456 28.6463C30.704 29.8663 30.0065 31.5209 30.0065 33.2462C30.0065 34.9715 30.704 36.6262 31.9456 37.8462C33.1871 39.0662 34.8711 39.7515 36.6269 39.7515C38.3827 39.7515 40.0666 39.0662 41.3082 37.8462C42.5498 36.6262 43.2473 34.9715 43.2473 33.2462C43.2473 31.5209 42.5498 29.8663 41.3082 28.6463C40.0666 27.4263 38.3827 26.7409 36.6269 26.7409ZM22.062 0.719727C24.8714 0.719727 27.5657 1.81633 29.5522 3.7683C31.5387 5.72027 32.6547 8.36771 32.6547 11.1282C32.6547 13.4961 31.8337 15.6819 30.4832 17.4514C28.2058 18.284 26.1667 19.6111 24.4719 21.2765L22.062 21.5367C19.2527 21.5367 16.5584 20.4401 14.5719 18.4881C12.5854 16.5361 11.4694 13.8887 11.4694 11.1282C11.4694 8.36771 12.5854 5.72027 14.5719 3.7683C16.5584 1.81633 19.2527 0.719727 22.062 0.719727ZM0.876831 42.3537V37.1494C0.876831 31.6329 9.64221 27.1052 20.738 26.7409C19.8906 28.7706 19.4139 30.9564 19.4139 33.2462C19.4139 36.603 20.4202 39.7515 22.062 42.3537H0.876831Z" fill="#A39161"/>
</svg>
