<svg width="34" height="40" viewBox="0 0 34 40" fill="none" xmlns="http://www.w3.org/2000/svg">
<path d="M33.546 7.6785C33.3945 7.50578 33.2089 7.36613 33.0009 7.2683C32.7928 7.17047 32.5668 7.11655 32.3369 7.10993C28.7658 7.01672 24.2471 3.2045 21.2595 1.70851C19.414 0.787301 18.1957 0.179894 17.2807 0.0198866C17.0949 -0.00713974 16.9062 -0.00661627 16.7205 0.0214401C15.8056 0.181448 14.5872 0.788855 12.7433 1.71006C9.75573 3.2045 5.237 7.01672 1.6659 7.10993C1.43587 7.11689 1.20973 7.17095 1.00148 7.26876C0.793243 7.36656 0.607341 7.50602 0.455303 7.6785C0.140163 8.03445 -0.0224329 8.49968 0.00249581 8.97409C0.769622 24.5445 6.36357 34.1807 16.179 39.781C16.4342 39.9254 16.7174 40 16.9991 40C17.2807 40 17.5639 39.9254 17.8207 39.781C27.6361 34.1807 33.2285 24.5445 33.9972 8.97409C34.0236 8.49975 33.8614 8.03417 33.546 7.6785V7.6785ZM25.7409 13.8023L17.4581 26.0048C17.1609 26.4429 16.6941 26.7334 16.232 26.7334C15.7683 26.7334 15.2532 26.4801 14.928 26.1555L9.08975 20.3253C8.89914 20.1343 8.79211 19.8757 8.79211 19.606C8.79211 19.3364 8.89914 19.0778 9.08975 18.8868L10.5322 17.4436C10.7239 17.2541 10.9828 17.1477 11.2526 17.1477C11.5225 17.1477 11.7814 17.2541 11.9731 17.4436L15.7698 21.2341L22.3659 11.514C22.5185 11.2916 22.753 11.1385 23.0183 11.0881C23.2836 11.0378 23.5581 11.0943 23.7818 11.2453L25.4701 12.3886C25.6932 12.5407 25.8469 12.7748 25.8976 13.0397C25.9483 13.3046 25.892 13.5787 25.7409 13.8023V13.8023Z" fill="white"/>
</svg>
