<svg width="44" height="39" viewBox="0 0 44 39" fill="none" xmlns="http://www.w3.org/2000/svg">
<path d="M0 39V34.6813C0 34.6813 11 30.3626 22 30.3626C33 30.3626 44 34.6813 44 34.6813V39H0ZM20.46 11.1443C17.82 2.72287 4.4 4.66629 4.4 4.66629C4.4 4.66629 4.84 21.5092 17.38 18.918C16.5 12.6559 13.2 10.9284 13.2 10.9284C19.36 10.9284 19.8 18.2702 19.8 18.2702V28.2032H24.2V19.134C24.2 19.134 24.2 10.7125 30.8 8.55312C30.8 8.55312 26.4 15.0312 26.4 19.3499C41.8 20.8614 41.8 0.131648 41.8 0.131648C41.8 0.131648 22.22 -2.0277 20.46 11.1443Z" fill="white"/>
</svg>
